<svg xmlns="http://www.w3.org/2000/svg" width="760" height="280" viewBox="0 0 760 280" role="img" aria-label="Current Profiler example plot">
  <rect width="100%" height="100%" fill="#ffffff" />
  <rect x="14" y="14" width="732" height="252" rx="12" fill="#f8fafc" stroke="#cbd5e1" />
  <text x="28" y="38" font-size="20" font-weight="700" fill="#0f172a">Current Profiler</text>
  <text x="28" y="258" font-size="12" fill="#475569">Generated from 24 Genesis perception demo timesteps (dt=0.05s) via examples/generate_sensor_doc_assets.py</text>
  <text x="28" y="54" font-size="12" fill="#475569">Representative scalar summaries extracted from the sensor observation dict</text>
  <line x1="56" y1="56.0" x2="516" y2="56.0" stroke="#e5e7eb" /><line x1="56" y1="98.5" x2="516" y2="98.5" stroke="#e5e7eb" /><line x1="56" y1="141.0" x2="516" y2="141.0" stroke="#e5e7eb" /><line x1="56" y1="183.5" x2="516" y2="183.5" stroke="#e5e7eb" /><line x1="56" y1="226.0" x2="516" y2="226.0" stroke="#e5e7eb" />
  <line x1="56" y1="56" x2="56" y2="226" stroke="#94a3b8" stroke-width="1.5" />
  <line x1="56" y1="226" x2="516" y2="226" stroke="#94a3b8" stroke-width="1.5" />
  <text x="18" y="64" font-size="11" fill="#64748b">0.354</text>
  <text x="18" y="226" font-size="11" fill="#64748b">-0.123</text>
  <polyline fill="none" stroke="#2563eb" stroke-width="2.5" points="56.0,69.4 76.0,69.4 96.0,69.4 116.0,69.4 136.0,69.4 156.0,69.4 176.0,69.4 196.0,69.4 216.0,69.4 236.0,69.4 256.0,69.4 276.0,69.4 296.0,69.4 316.0,69.4 336.0,69.4 356.0,69.4 376.0,69.4 396.0,69.4 416.0,69.4 436.0,69.4 456.0,56.0 476.0,56.0 496.0,56.0 516.0,56.0" /><polyline fill="none" stroke="#dc2626" stroke-width="2.5" points="56.0,90.1 76.0,90.1 96.0,90.1 116.0,90.1 136.0,90.1 156.0,90.1 176.0,90.1 196.0,90.1 216.0,90.1 236.0,90.1 256.0,90.1 276.0,90.1 296.0,90.1 316.0,90.1 336.0,90.1 356.0,90.1 376.0,90.1 396.0,90.1 416.0,90.1 436.0,90.1 456.0,88.4 476.0,88.4 496.0,88.4 516.0,88.4" /><polyline fill="none" stroke="#059669" stroke-width="2.5" points="56.0,164.1 76.0,164.1 96.0,164.1 116.0,164.1 136.0,164.1 156.0,164.1 176.0,164.1 196.0,164.1 216.0,164.1 236.0,164.1 256.0,164.1 276.0,164.1 296.0,164.1 316.0,164.1 336.0,164.1 356.0,164.1 376.0,164.1 396.0,164.1 416.0,164.1 436.0,164.1 456.0,165.7 476.0,165.7 496.0,165.7 516.0,165.7" /><polyline fill="none" stroke="#d97706" stroke-width="2.5" points="56.0,204.4 76.0,204.4 96.0,204.4 116.0,204.4 136.0,204.4 156.0,204.4 176.0,204.4 196.0,204.4 216.0,204.4 236.0,204.4 256.0,204.4 276.0,204.4 296.0,204.4 316.0,204.4 336.0,204.4 356.0,204.4 376.0,204.4 396.0,204.4 416.0,204.4 436.0,204.4 456.0,226.0 476.0,226.0 496.0,226.0 516.0,226.0" />
  <rect x="548" y="54" width="12" height="12" rx="2" fill="#2563eb" /><text x="568" y="64" font-size="12" fill="#111827">speed profile ms max: 0.354</text><rect x="548" y="78" width="12" height="12" rx="2" fill="#dc2626" /><text x="568" y="88" font-size="12" fill="#111827">speed profile ms mean: 0.263</text><rect x="548" y="102" width="12" height="12" rx="2" fill="#059669" /><text x="568" y="112" font-size="12" fill="#111827">speed profile ms std: 0.0461</text><rect x="548" y="126" width="12" height="12" rx="2" fill="#d97706" /><text x="568" y="136" font-size="12" fill="#111827">mean current ms[1]: -0.123</text>
</svg>
