<svg xmlns="http://www.w3.org/2000/svg" width="760" height="280" viewBox="0 0 760 280" role="img" aria-label="Anemometer example plot">
  <rect width="100%" height="100%" fill="#ffffff" />
  <rect x="14" y="14" width="732" height="252" rx="12" fill="#f8fafc" stroke="#cbd5e1" />
  <text x="28" y="38" font-size="20" font-weight="700" fill="#0f172a">Anemometer</text>
  <text x="28" y="258" font-size="12" fill="#475569">Generated from 24 synthetic timesteps (dt=0.05s) via examples/generate_sensor_doc_assets.py</text>
  <text x="28" y="54" font-size="12" fill="#475569">Representative scalar summaries extracted from the sensor observation dict</text>
  <line x1="56" y1="56.0" x2="516" y2="56.0" stroke="#e5e7eb" /><line x1="56" y1="98.5" x2="516" y2="98.5" stroke="#e5e7eb" /><line x1="56" y1="141.0" x2="516" y2="141.0" stroke="#e5e7eb" /><line x1="56" y1="183.5" x2="516" y2="183.5" stroke="#e5e7eb" /><line x1="56" y1="226.0" x2="516" y2="226.0" stroke="#e5e7eb" />
  <line x1="56" y1="56" x2="56" y2="226" stroke="#94a3b8" stroke-width="1.5" />
  <line x1="56" y1="226" x2="516" y2="226" stroke="#94a3b8" stroke-width="1.5" />
  <text x="18" y="64" font-size="11" fill="#64748b">355</text>
  <text x="18" y="226" font-size="11" fill="#64748b">-0.386</text>
  <polyline fill="none" stroke="#2563eb" stroke-width="2.5" points="56.0,224.4 76.0,225.2 96.0,220.7 116.0,218.2 136.0,222.0 156.0,222.0 176.0,221.9 196.0,217.9 216.0,219.2 236.0,224.7 256.0,223.8 276.0,220.6 296.0,224.8 316.0,224.5 336.0,219.2 356.0,222.2 376.0,221.1 396.0,56.0 416.0,224.2 436.0,224.1 456.0,56.0 476.0,225.0 496.0,224.9 516.0,225.8" /><polyline fill="none" stroke="#dc2626" stroke-width="2.5" points="56.0,225.2 76.0,225.2 96.0,225.2 116.0,225.2 136.0,225.3 156.0,225.3 176.0,225.3 196.0,225.2 216.0,225.2 236.0,225.2 256.0,225.2 276.0,225.1 296.0,225.2 316.0,225.3 336.0,225.3 356.0,225.2 376.0,225.2 396.0,225.2 416.0,225.2 436.0,225.3 456.0,225.2 476.0,225.2 496.0,225.2 516.0,225.3" /><polyline fill="none" stroke="#059669" stroke-width="2.5" points="56.0,225.7 76.0,225.8 96.0,225.7 116.0,225.6 136.0,225.7 156.0,225.7 176.0,225.7 196.0,225.6 216.0,225.6 236.0,225.7 256.0,225.8 276.0,225.7 296.0,225.8 316.0,225.8 336.0,225.7 356.0,225.7 376.0,225.7 396.0,225.8 416.0,225.8 436.0,225.8 456.0,225.8 476.0,225.8 496.0,225.8 516.0,225.8" /><polyline fill="none" stroke="#d97706" stroke-width="2.5" points="56.0,225.8 76.0,225.8 96.0,225.8 116.0,225.8 136.0,225.8 156.0,225.8 176.0,225.8 196.0,225.9 216.0,225.7 236.0,225.8 256.0,225.8 276.0,225.9 296.0,225.8 316.0,225.9 336.0,225.8 356.0,225.8 376.0,225.7 396.0,226.0 416.0,225.9 436.0,225.8 456.0,225.8 476.0,225.7 496.0,225.8 516.0,225.8" />
  <rect x="548" y="54" width="12" height="12" rx="2" fill="#2563eb" /><text x="568" y="64" font-size="12" fill="#111827">wind direction deg: 0.132</text><rect x="548" y="78" width="12" height="12" rx="2" fill="#dc2626" /><text x="568" y="88" font-size="12" fill="#111827">wind speed ms: 1.05</text><rect x="548" y="102" width="12" height="12" rx="2" fill="#059669" /><text x="568" y="112" font-size="12" fill="#111827">wind vector ms[1]: 0.0556</text><rect x="548" y="126" width="12" height="12" rx="2" fill="#d97706" /><text x="568" y="136" font-size="12" fill="#111827">wind vector ms[2]: -0.0453</text>
</svg>
