<svg xmlns="http://www.w3.org/2000/svg" width="760" height="280" viewBox="0 0 760 280" role="img" aria-label="Anemometer example plot">
  <rect width="100%" height="100%" fill="#ffffff" />
  <rect x="14" y="14" width="732" height="252" rx="12" fill="#f8fafc" stroke="#cbd5e1" />
  <text x="28" y="38" font-size="20" font-weight="700" fill="#0f172a">Anemometer</text>
  <text x="28" y="258" font-size="12" fill="#475569">Generated from 24 Genesis perception demo timesteps (dt=0.05s) via examples/generate_sensor_doc_assets.py</text>
  <text x="28" y="54" font-size="12" fill="#475569">Representative scalar summaries extracted from the sensor observation dict</text>
  <line x1="56" y1="56.0" x2="516" y2="56.0" stroke="#e5e7eb" /><line x1="56" y1="98.5" x2="516" y2="98.5" stroke="#e5e7eb" /><line x1="56" y1="141.0" x2="516" y2="141.0" stroke="#e5e7eb" /><line x1="56" y1="183.5" x2="516" y2="183.5" stroke="#e5e7eb" /><line x1="56" y1="226.0" x2="516" y2="226.0" stroke="#e5e7eb" />
  <line x1="56" y1="56" x2="56" y2="226" stroke="#94a3b8" stroke-width="1.5" />
  <line x1="56" y1="226" x2="516" y2="226" stroke="#94a3b8" stroke-width="1.5" />
  <text x="18" y="64" font-size="11" fill="#64748b">358</text>
  <text x="18" y="226" font-size="11" fill="#64748b">0.0982</text>
  <polyline fill="none" stroke="#2563eb" stroke-width="2.5" points="56.0,221.7 76.0,221.7 96.0,221.7 116.0,221.7 136.0,221.7 156.0,225.5 176.0,225.5 196.0,225.5 216.0,225.5 236.0,225.5 256.0,56.0 276.0,56.0 296.0,56.0 316.0,56.0 336.0,56.0 356.0,226.0 376.0,226.0 396.0,226.0 416.0,226.0 436.0,226.0 456.0,57.7 476.0,57.7 496.0,57.7 516.0,57.7" /><polyline fill="none" stroke="#dc2626" stroke-width="2.5" points="56.0,225.4 76.0,225.4 96.0,225.4 116.0,225.4 136.0,225.4 156.0,225.4 176.0,225.4 196.0,225.4 216.0,225.4 236.0,225.4 256.0,225.3 276.0,225.3 296.0,225.3 316.0,225.3 336.0,225.3 356.0,225.3 376.0,225.3 396.0,225.3 416.0,225.3 436.0,225.3 456.0,225.3 476.0,225.3 496.0,225.3 516.0,225.3" /><polyline fill="none" stroke="#059669" stroke-width="2.5" points="56.0,225.5 76.0,225.5 96.0,225.5 116.0,225.5 136.0,225.5 156.0,225.4 176.0,225.4 196.0,225.4 216.0,225.4 236.0,225.4 256.0,225.3 276.0,225.3 296.0,225.3 316.0,225.3 336.0,225.3 356.0,225.3 376.0,225.3 396.0,225.3 416.0,225.3 436.0,225.3 456.0,225.3 476.0,225.3 496.0,225.3 516.0,225.3" /><polyline fill="none" stroke="#d97706" stroke-width="2.5" points="56.0,225.5 76.0,225.5 96.0,225.5 116.0,225.5 136.0,225.5 156.0,225.4 176.0,225.4 196.0,225.4 216.0,225.4 236.0,225.4 256.0,225.3 276.0,225.3 296.0,225.3 316.0,225.3 336.0,225.3 356.0,225.3 376.0,225.3 396.0,225.3 416.0,225.3 436.0,225.3 456.0,225.3 476.0,225.3 496.0,225.3 516.0,225.3" />
  <rect x="548" y="54" width="12" height="12" rx="2" fill="#2563eb" /><text x="568" y="64" font-size="12" fill="#111827">wind direction deg: 355</text><rect x="548" y="78" width="12" height="12" rx="2" fill="#dc2626" /><text x="568" y="88" font-size="12" fill="#111827">wind speed ms: 1.54</text><rect x="548" y="102" width="12" height="12" rx="2" fill="#059669" /><text x="568" y="112" font-size="12" fill="#111827">wind vector ms max: 1.53</text><rect x="548" y="126" width="12" height="12" rx="2" fill="#d97706" /><text x="568" y="136" font-size="12" fill="#111827">wind vector ms[0]: 1.53</text>
</svg>
