<svg xmlns="http://www.w3.org/2000/svg" width="760" height="280" viewBox="0 0 760 280" role="img" aria-label="Battery example plot">
  <rect width="100%" height="100%" fill="#ffffff" />
  <rect x="14" y="14" width="732" height="252" rx="12" fill="#f8fafc" stroke="#cbd5e1" />
  <text x="28" y="38" font-size="20" font-weight="700" fill="#0f172a">Battery</text>
  <text x="28" y="258" font-size="12" fill="#475569">Generated from 24 Genesis perception demo timesteps (dt=0.05s) via examples/generate_sensor_doc_assets.py</text>
  <text x="28" y="54" font-size="12" fill="#475569">Representative scalar summaries extracted from the sensor observation dict</text>
  <line x1="56" y1="56.0" x2="516" y2="56.0" stroke="#e5e7eb" /><line x1="56" y1="98.5" x2="516" y2="98.5" stroke="#e5e7eb" /><line x1="56" y1="141.0" x2="516" y2="141.0" stroke="#e5e7eb" /><line x1="56" y1="183.5" x2="516" y2="183.5" stroke="#e5e7eb" /><line x1="56" y1="226.0" x2="516" y2="226.0" stroke="#e5e7eb" />
  <line x1="56" y1="56" x2="56" y2="226" stroke="#94a3b8" stroke-width="1.5" />
  <line x1="56" y1="226" x2="516" y2="226" stroke="#94a3b8" stroke-width="1.5" />
  <text x="18" y="64" font-size="11" fill="#64748b">16.7</text>
  <text x="18" y="226" font-size="11" fill="#64748b">0</text>
  <polyline fill="none" stroke="#2563eb" stroke-width="2.5" points="56.0,226.0 76.0,226.0 96.0,222.6 116.0,222.6 136.0,219.2 156.0,219.2 176.0,215.8 196.0,215.8 216.0,212.4 236.0,212.4 256.0,209.0 276.0,209.0 296.0,205.6 316.0,205.6 336.0,202.2 356.0,202.2 376.0,198.8 396.0,198.8 416.0,195.4 436.0,195.4 456.0,192.0 476.0,192.0 496.0,188.6 516.0,188.6" /><polyline fill="none" stroke="#dc2626" stroke-width="2.5" points="56.0,56.1 76.0,56.1 96.0,56.3 116.0,56.3 136.0,56.0 156.0,56.0 176.0,56.3 196.0,56.3 216.0,56.1 236.0,56.1 256.0,56.1 276.0,56.1 296.0,56.2 316.0,56.2 336.0,56.0 356.0,56.0 376.0,56.1 396.0,56.1 416.0,56.1 436.0,56.1 456.0,56.0 476.0,56.0 496.0,56.0 516.0,56.0" /><polyline fill="none" stroke="#059669" stroke-width="2.5" points="56.0,183.5 76.0,183.5 96.0,183.6 116.0,183.6 136.0,183.5 156.0,183.5 176.0,183.6 196.0,183.6 216.0,183.5 236.0,183.5 256.0,183.5 276.0,183.5 296.0,183.6 316.0,183.6 336.0,183.5 356.0,183.5 376.0,183.5 396.0,183.5 416.0,183.5 436.0,183.5 456.0,183.5 476.0,183.5 496.0,183.5 516.0,183.5" /><polyline fill="none" stroke="#d97706" stroke-width="2.5" points="56.0,215.8 76.0,215.8 96.0,215.8 116.0,215.8 136.0,215.8 156.0,215.8 176.0,215.8 196.0,215.8 216.0,215.8 236.0,215.8 256.0,215.8 276.0,215.8 296.0,215.8 316.0,215.8 336.0,215.8 356.0,215.8 376.0,215.8 396.0,215.8 416.0,215.8 436.0,215.8 456.0,215.8 476.0,215.8 496.0,215.8 516.0,215.8" />
  <rect x="548" y="54" width="12" height="12" rx="2" fill="#2563eb" /><text x="568" y="64" font-size="12" fill="#111827">capacity used mah: 3.67</text><rect x="548" y="78" width="12" height="12" rx="2" fill="#dc2626" /><text x="568" y="88" font-size="12" fill="#111827">voltage v: 16.7</text><rect x="548" y="102" width="12" height="12" rx="2" fill="#059669" /><text x="568" y="112" font-size="12" fill="#111827">voltage per cell v: 4.17</text><rect x="548" y="126" width="12" height="12" rx="2" fill="#d97706" /><text x="568" y="136" font-size="12" fill="#111827">soc: 0.999</text>
</svg>
