<svg xmlns="http://www.w3.org/2000/svg" width="760" height="280" viewBox="0 0 760 280" role="img" aria-label="Battery example plot">
  <rect width="100%" height="100%" fill="#ffffff" />
  <rect x="14" y="14" width="732" height="252" rx="12" fill="#f8fafc" stroke="#cbd5e1" />
  <text x="28" y="38" font-size="20" font-weight="700" fill="#0f172a">Battery</text>
  <text x="28" y="258" font-size="12" fill="#475569">Generated from 24 synthetic timesteps (dt=0.05s) via examples/generate_sensor_doc_assets.py</text>
  <text x="28" y="54" font-size="12" fill="#475569">Representative scalar summaries extracted from the sensor observation dict</text>
  <line x1="56" y1="56.0" x2="516" y2="56.0" stroke="#e5e7eb" /><line x1="56" y1="98.5" x2="516" y2="98.5" stroke="#e5e7eb" /><line x1="56" y1="141.0" x2="516" y2="141.0" stroke="#e5e7eb" /><line x1="56" y1="183.5" x2="516" y2="183.5" stroke="#e5e7eb" /><line x1="56" y1="226.0" x2="516" y2="226.0" stroke="#e5e7eb" />
  <line x1="56" y1="56" x2="56" y2="226" stroke="#94a3b8" stroke-width="1.5" />
  <line x1="56" y1="226" x2="516" y2="226" stroke="#94a3b8" stroke-width="1.5" />
  <text x="18" y="64" font-size="11" fill="#64748b">150</text>
  <text x="18" y="226" font-size="11" fill="#64748b">0.999</text>
  <polyline fill="none" stroke="#2563eb" stroke-width="2.5" points="56.0,57.1 76.0,58.5 96.0,58.4 116.0,60.3 136.0,60.0 156.0,56.4 176.0,59.3 196.0,57.2 216.0,58.3 236.0,57.6 256.0,57.7 276.0,56.7 296.0,56.0 316.0,62.7 336.0,59.5 356.0,57.6 376.0,60.5 396.0,59.9 416.0,60.3 436.0,56.5 456.0,59.9 476.0,60.5 496.0,57.7 516.0,65.2" /><polyline fill="none" stroke="#dc2626" stroke-width="2.5" points="56.0,208.4 76.0,208.4 96.0,208.4 116.0,208.4 136.0,208.4 156.0,208.4 176.0,208.4 196.0,208.4 216.0,208.4 236.0,208.4 256.0,208.4 276.0,208.4 296.0,208.4 316.0,208.4 336.0,208.4 356.0,208.4 376.0,208.4 396.0,208.4 416.0,208.4 436.0,208.4 456.0,208.4 476.0,208.4 496.0,208.4 516.0,208.4" /><polyline fill="none" stroke="#059669" stroke-width="2.5" points="56.0,222.4 76.0,222.5 96.0,222.5 116.0,222.5 136.0,222.5 156.0,222.5 176.0,222.5 196.0,222.4 216.0,222.5 236.0,222.5 256.0,222.5 276.0,222.5 296.0,222.5 316.0,222.5 336.0,222.5 356.0,222.4 376.0,222.4 396.0,222.5 416.0,222.4 436.0,222.5 456.0,222.5 476.0,222.5 496.0,222.5 516.0,222.5" /><polyline fill="none" stroke="#d97706" stroke-width="2.5" points="56.0,226.0 76.0,226.0 96.0,226.0 116.0,226.0 136.0,226.0 156.0,226.0 176.0,226.0 196.0,226.0 216.0,226.0 236.0,226.0 256.0,226.0 276.0,226.0 296.0,226.0 316.0,226.0 336.0,226.0 356.0,226.0 376.0,226.0 396.0,226.0 416.0,226.0 436.0,226.0 456.0,226.0 476.0,226.0 496.0,226.0 516.0,226.0" />
  <rect x="548" y="54" width="12" height="12" rx="2" fill="#2563eb" /><text x="568" y="64" font-size="12" fill="#111827">power w: 142</text><rect x="548" y="78" width="12" height="12" rx="2" fill="#dc2626" /><text x="568" y="88" font-size="12" fill="#111827">voltage v: 16.4</text><rect x="548" y="102" width="12" height="12" rx="2" fill="#059669" /><text x="568" y="112" font-size="12" fill="#111827">voltage per cell v: 4.11</text><rect x="548" y="126" width="12" height="12" rx="2" fill="#d97706" /><text x="568" y="136" font-size="12" fill="#111827">soc: 0.999</text>
</svg>
