<svg xmlns="http://www.w3.org/2000/svg" width="760" height="280" viewBox="0 0 760 280" role="img" aria-label="RGB Camera example plot">
  <rect width="100%" height="100%" fill="#ffffff" />
  <rect x="14" y="14" width="732" height="252" rx="12" fill="#f8fafc" stroke="#cbd5e1" />
  <text x="28" y="38" font-size="20" font-weight="700" fill="#0f172a">RGB Camera</text>
  <text x="28" y="258" font-size="12" fill="#475569">Generated from 24 synthetic timesteps (dt=0.05s) via examples/generate_sensor_doc_assets.py</text>
  <text x="28" y="54" font-size="12" fill="#475569">Representative scalar summaries extracted from the sensor observation dict</text>
  <line x1="56" y1="56.0" x2="516" y2="56.0" stroke="#e5e7eb" /><line x1="56" y1="98.5" x2="516" y2="98.5" stroke="#e5e7eb" /><line x1="56" y1="141.0" x2="516" y2="141.0" stroke="#e5e7eb" /><line x1="56" y1="183.5" x2="516" y2="183.5" stroke="#e5e7eb" /><line x1="56" y1="226.0" x2="516" y2="226.0" stroke="#e5e7eb" />
  <line x1="56" y1="56" x2="56" y2="226" stroke="#94a3b8" stroke-width="1.5" />
  <line x1="56" y1="226" x2="516" y2="226" stroke="#94a3b8" stroke-width="1.5" />
  <text x="18" y="64" font-size="11" fill="#64748b">255</text>
  <text x="18" y="226" font-size="11" fill="#64748b">47.2</text>
  <polyline fill="none" stroke="#2563eb" stroke-width="2.5" points="56.0,151.7 76.0,156.8 96.0,159.8 116.0,162.0 136.0,163.6 156.0,164.8 176.0,165.7 196.0,166.4 216.0,166.9 236.0,167.3 256.0,167.6 276.0,167.8 296.0,168.0 316.0,168.1 336.0,168.3 356.0,168.4 376.0,168.6 396.0,168.8 416.0,169.0 436.0,169.1 456.0,169.3 476.0,169.4 496.0,169.5 516.0,169.6" /><polyline fill="none" stroke="#dc2626" stroke-width="2.5" points="56.0,56.0 76.0,56.8 96.0,58.5 116.0,59.3 136.0,61.7 156.0,59.3 176.0,59.3 196.0,57.6 216.0,58.5 236.0,58.5 256.0,57.6 276.0,60.1 296.0,56.0 316.0,57.6 336.0,58.5 356.0,60.1 376.0,60.9 396.0,61.7 416.0,62.5 436.0,60.9 456.0,60.1 476.0,60.9 496.0,61.7 516.0,59.3" /><polyline fill="none" stroke="#059669" stroke-width="2.5" points="56.0,225.3 76.0,226.0 96.0,225.5 116.0,224.8 136.0,224.0 156.0,223.4 176.0,222.9 196.0,222.5 216.0,222.2 236.0,221.8 256.0,221.5 276.0,221.3 296.0,221.1 316.0,221.1 336.0,220.9 356.0,220.9 376.0,220.8 396.0,220.8 416.0,220.8 436.0,220.7 456.0,220.7 476.0,220.6 496.0,220.5 516.0,220.4" />
  <rect x="548" y="54" width="12" height="12" rx="2" fill="#2563eb" /><text x="568" y="64" font-size="12" fill="#111827">rgb mean: 116</text><rect x="548" y="78" width="12" height="12" rx="2" fill="#dc2626" /><text x="568" y="88" font-size="12" fill="#111827">rgb max: 251</text><rect x="548" y="102" width="12" height="12" rx="2" fill="#059669" /><text x="568" y="112" font-size="12" fill="#111827">rgb std: 54</text>
</svg>
