<svg xmlns="http://www.w3.org/2000/svg" width="760" height="280" viewBox="0 0 760 280" role="img" aria-label="Current Sensor example plot">
  <rect width="100%" height="100%" fill="#ffffff" />
  <rect x="14" y="14" width="732" height="252" rx="12" fill="#f8fafc" stroke="#cbd5e1" />
  <text x="28" y="38" font-size="20" font-weight="700" fill="#0f172a">Current Sensor</text>
  <text x="28" y="258" font-size="12" fill="#475569">Generated from 24 synthetic timesteps (dt=0.05s) via examples/generate_sensor_doc_assets.py</text>
  <text x="28" y="54" font-size="12" fill="#475569">Representative scalar summaries extracted from the sensor observation dict</text>
  <line x1="56" y1="56.0" x2="516" y2="56.0" stroke="#e5e7eb" /><line x1="56" y1="98.5" x2="516" y2="98.5" stroke="#e5e7eb" /><line x1="56" y1="141.0" x2="516" y2="141.0" stroke="#e5e7eb" /><line x1="56" y1="183.5" x2="516" y2="183.5" stroke="#e5e7eb" /><line x1="56" y1="226.0" x2="516" y2="226.0" stroke="#e5e7eb" />
  <line x1="56" y1="56" x2="56" y2="226" stroke="#94a3b8" stroke-width="1.5" />
  <line x1="56" y1="226" x2="516" y2="226" stroke="#94a3b8" stroke-width="1.5" />
  <text x="18" y="64" font-size="11" fill="#64748b">134</text>
  <text x="18" y="226" font-size="11" fill="#64748b">8.9</text>
  <polyline fill="none" stroke="#2563eb" stroke-width="2.5" points="56.0,56.0 76.0,56.0 96.0,56.2 116.0,56.1 136.0,56.4 156.0,56.7 176.0,56.0 196.0,56.3 216.0,56.9 236.0,56.8 256.0,56.8 276.0,56.7 296.0,56.6 316.0,56.9 336.0,57.2 356.0,57.2 376.0,57.5 396.0,57.5 416.0,57.9 436.0,58.2 456.0,57.8 476.0,58.4 496.0,58.5 516.0,58.8" /><polyline fill="none" stroke="#dc2626" stroke-width="2.5" points="56.0,225.8 76.0,225.8 96.0,225.8 116.0,225.8 136.0,225.8 156.0,225.9 176.0,225.8 196.0,225.8 216.0,225.9 236.0,225.9 256.0,225.9 276.0,225.9 296.0,225.9 316.0,225.9 336.0,225.9 356.0,225.9 376.0,225.9 396.0,225.9 416.0,225.9 436.0,226.0 456.0,225.9 476.0,226.0 496.0,226.0 516.0,226.0" />
  <rect x="548" y="54" width="12" height="12" rx="2" fill="#2563eb" /><text x="568" y="64" font-size="12" fill="#111827">power w: 132</text><rect x="548" y="78" width="12" height="12" rx="2" fill="#dc2626" /><text x="568" y="88" font-size="12" fill="#111827">current a: 8.9</text>
</svg>
