<svg xmlns="http://www.w3.org/2000/svg" width="760" height="280" viewBox="0 0 760 280" role="img" aria-label="Depth Camera example plot">
  <rect width="100%" height="100%" fill="#ffffff" />
  <rect x="14" y="14" width="732" height="252" rx="12" fill="#f8fafc" stroke="#cbd5e1" />
  <text x="28" y="38" font-size="20" font-weight="700" fill="#0f172a">Depth Camera</text>
  <text x="28" y="258" font-size="12" fill="#475569">Generated from 24 synthetic timesteps (dt=0.05s) via examples/generate_sensor_doc_assets.py</text>
  <text x="28" y="54" font-size="12" fill="#475569">Representative scalar summaries extracted from the sensor observation dict</text>
  <line x1="56" y1="56.0" x2="516" y2="56.0" stroke="#e5e7eb" /><line x1="56" y1="98.5" x2="516" y2="98.5" stroke="#e5e7eb" /><line x1="56" y1="141.0" x2="516" y2="141.0" stroke="#e5e7eb" /><line x1="56" y1="183.5" x2="516" y2="183.5" stroke="#e5e7eb" /><line x1="56" y1="226.0" x2="516" y2="226.0" stroke="#e5e7eb" />
  <line x1="56" y1="56" x2="56" y2="226" stroke="#94a3b8" stroke-width="1.5" />
  <line x1="56" y1="226" x2="516" y2="226" stroke="#94a3b8" stroke-width="1.5" />
  <text x="18" y="64" font-size="11" fill="#64748b">3.77</text>
  <text x="18" y="226" font-size="11" fill="#64748b">0.293</text>
  <polyline fill="none" stroke="#2563eb" stroke-width="2.5" points="56.0,56.4 76.0,56.4 96.0,56.0 116.0,56.6 136.0,56.2 156.0,56.2 176.0,56.7 196.0,56.6 216.0,56.7 236.0,56.6 256.0,56.8 276.0,56.8 296.0,57.0 316.0,56.9 336.0,56.4 356.0,56.4 376.0,56.8 396.0,56.7 416.0,56.5 436.0,56.8 456.0,56.7 476.0,57.0 496.0,56.6 516.0,57.1" /><polyline fill="none" stroke="#dc2626" stroke-width="2.5" points="56.0,113.8 76.0,113.8 96.0,113.8 116.0,113.9 136.0,113.9 156.0,113.9 176.0,113.9 196.0,113.9 216.0,113.9 236.0,113.9 256.0,113.9 276.0,113.9 296.0,114.0 316.0,114.0 336.0,114.0 356.0,114.0 376.0,114.1 396.0,114.1 416.0,114.1 436.0,114.2 456.0,114.2 476.0,114.2 496.0,114.3 516.0,114.3" /><polyline fill="none" stroke="#059669" stroke-width="2.5" points="56.0,195.2 76.0,195.2 96.0,195.2 116.0,195.2 136.0,195.2 156.0,195.2 176.0,195.2 196.0,195.2 216.0,195.2 236.0,195.3 256.0,195.3 276.0,195.3 296.0,195.3 316.0,195.3 336.0,195.3 356.0,195.3 376.0,195.3 396.0,195.3 416.0,195.3 436.0,195.3 456.0,195.3 476.0,195.3 496.0,195.4 516.0,195.4" /><polyline fill="none" stroke="#d97706" stroke-width="2.5" points="56.0,226.0 76.0,226.0 96.0,226.0 116.0,226.0 136.0,226.0 156.0,226.0 176.0,226.0 196.0,226.0 216.0,226.0 236.0,226.0 256.0,226.0 276.0,226.0 296.0,226.0 316.0,226.0 336.0,226.0 356.0,226.0 376.0,226.0 396.0,226.0 416.0,226.0 436.0,226.0 456.0,226.0 476.0,226.0 496.0,226.0 516.0,226.0" />
  <rect x="548" y="54" width="12" height="12" rx="2" fill="#2563eb" /><text x="568" y="64" font-size="12" fill="#111827">depth m max: 3.75</text><rect x="548" y="78" width="12" height="12" rx="2" fill="#dc2626" /><text x="568" y="88" font-size="12" fill="#111827">depth m mean: 2.58</text><rect x="548" y="102" width="12" height="12" rx="2" fill="#059669" /><text x="568" y="112" font-size="12" fill="#111827">depth m std: 0.92</text><rect x="548" y="126" width="12" height="12" rx="2" fill="#d97706" /><text x="568" y="136" font-size="12" fill="#111827">valid mask std: 0.293</text>
</svg>
