<svg xmlns="http://www.w3.org/2000/svg" width="760" height="280" viewBox="0 0 760 280" role="img" aria-label="DVL example plot">
  <rect width="100%" height="100%" fill="#ffffff" />
  <rect x="14" y="14" width="732" height="252" rx="12" fill="#f8fafc" stroke="#cbd5e1" />
  <text x="28" y="38" font-size="20" font-weight="700" fill="#0f172a">DVL</text>
  <text x="28" y="258" font-size="12" fill="#475569">Generated from 24 Genesis perception demo timesteps (dt=0.05s) via examples/generate_sensor_doc_assets.py</text>
  <text x="28" y="54" font-size="12" fill="#475569">Representative scalar summaries extracted from the sensor observation dict</text>
  <line x1="56" y1="56.0" x2="516" y2="56.0" stroke="#e5e7eb" /><line x1="56" y1="98.5" x2="516" y2="98.5" stroke="#e5e7eb" /><line x1="56" y1="141.0" x2="516" y2="141.0" stroke="#e5e7eb" /><line x1="56" y1="183.5" x2="516" y2="183.5" stroke="#e5e7eb" /><line x1="56" y1="226.0" x2="516" y2="226.0" stroke="#e5e7eb" />
  <line x1="56" y1="56" x2="56" y2="226" stroke="#94a3b8" stroke-width="1.5" />
  <line x1="56" y1="226" x2="516" y2="226" stroke="#94a3b8" stroke-width="1.5" />
  <text x="18" y="64" font-size="11" fill="#64748b">1.41</text>
  <text x="18" y="226" font-size="11" fill="#64748b">0.00853</text>
  <polyline fill="none" stroke="#2563eb" stroke-width="2.5" points="56.0,225.6 76.0,225.6 96.0,225.6 116.0,225.6 136.0,225.6 156.0,224.5 176.0,224.5 196.0,224.5 216.0,224.5 236.0,224.5 256.0,190.3 276.0,190.3 296.0,190.3 316.0,190.3 336.0,190.3 356.0,96.0 376.0,96.0 396.0,96.0 416.0,96.0 436.0,96.0 456.0,56.0 476.0,56.0 496.0,56.0 516.0,56.0" /><polyline fill="none" stroke="#dc2626" stroke-width="2.5" points="56.0,126.0 76.0,126.0 96.0,126.0 116.0,126.0 136.0,126.0 156.0,125.4 176.0,125.4 196.0,125.4 216.0,125.4 236.0,125.4 256.0,130.0 276.0,130.0 296.0,130.0 316.0,130.0 336.0,130.0 356.0,130.7 376.0,130.7 396.0,130.7 416.0,130.7 436.0,130.7 456.0,143.1 476.0,143.1 496.0,143.1 516.0,143.1" /><polyline fill="none" stroke="#059669" stroke-width="2.5" points="56.0,127.9 76.0,127.9 96.0,127.9 116.0,127.9 136.0,127.9 156.0,129.0 176.0,129.0 196.0,129.0 216.0,129.0 236.0,129.0 256.0,131.0 276.0,131.0 296.0,131.0 316.0,131.0 336.0,131.0 356.0,132.3 376.0,132.3 396.0,132.3 416.0,132.3 436.0,132.3 456.0,144.2 476.0,144.2 496.0,144.2 516.0,144.2" /><polyline fill="none" stroke="#d97706" stroke-width="2.5" points="56.0,225.8 76.0,225.8 96.0,225.8 116.0,225.8 136.0,225.8 156.0,224.6 176.0,224.6 196.0,224.6 216.0,224.6 236.0,224.6 256.0,225.8 276.0,225.8 296.0,225.8 316.0,225.8 336.0,225.8 356.0,225.7 376.0,225.7 396.0,225.7 416.0,225.7 436.0,225.7 456.0,226.0 476.0,226.0 496.0,226.0 516.0,226.0" />
  <rect x="548" y="54" width="12" height="12" rx="2" fill="#2563eb" /><text x="568" y="64" font-size="12" fill="#111827">speed ms: 1.41</text><rect x="548" y="78" width="12" height="12" rx="2" fill="#dc2626" /><text x="568" y="88" font-size="12" fill="#111827">beam ranges m max: 0.692</text><rect x="548" y="102" width="12" height="12" rx="2" fill="#059669" /><text x="568" y="112" font-size="12" fill="#111827">beam ranges m mean: 0.683</text><rect x="548" y="126" width="12" height="12" rx="2" fill="#d97706" /><text x="568" y="136" font-size="12" fill="#111827">beam ranges m std: 0.00853</text>
</svg>
