<svg xmlns="http://www.w3.org/2000/svg" width="760" height="280" viewBox="0 0 760 280" role="img" aria-label="Event Camera example plot">
  <rect width="100%" height="100%" fill="#ffffff" />
  <rect x="14" y="14" width="732" height="252" rx="12" fill="#f8fafc" stroke="#cbd5e1" />
  <text x="28" y="38" font-size="20" font-weight="700" fill="#0f172a">Event Camera</text>
  <text x="28" y="258" font-size="12" fill="#475569">Generated from 24 synthetic timesteps (dt=0.05s) via examples/generate_sensor_doc_assets.py</text>
  <text x="28" y="54" font-size="12" fill="#475569">Representative scalar summaries extracted from the sensor observation dict</text>
  <line x1="56" y1="56.0" x2="516" y2="56.0" stroke="#e5e7eb" /><line x1="56" y1="98.5" x2="516" y2="98.5" stroke="#e5e7eb" /><line x1="56" y1="141.0" x2="516" y2="141.0" stroke="#e5e7eb" /><line x1="56" y1="183.5" x2="516" y2="183.5" stroke="#e5e7eb" /><line x1="56" y1="226.0" x2="516" y2="226.0" stroke="#e5e7eb" />
  <line x1="56" y1="56" x2="56" y2="226" stroke="#94a3b8" stroke-width="1.5" />
  <line x1="56" y1="226" x2="516" y2="226" stroke="#94a3b8" stroke-width="1.5" />
  <text x="18" y="64" font-size="11" fill="#64748b">370</text>
  <text x="18" y="226" font-size="11" fill="#64748b">0</text>
  <polyline fill="none" stroke="#2563eb" stroke-width="2.5" points="56.0,226.0 76.0,136.4 96.0,136.9 116.0,141.9 136.0,154.8 156.0,147.4 176.0,140.1 196.0,130.4 216.0,135.5 236.0,116.2 256.0,119.4 276.0,114.4 296.0,93.7 316.0,79.0 336.0,79.9 356.0,64.3 376.0,67.0 396.0,66.1 416.0,56.0 436.0,68.4 456.0,72.5 476.0,82.6 496.0,81.3 516.0,83.6" /><polyline fill="none" stroke="#dc2626" stroke-width="2.5" points="56.0,187.9 76.9,184.6 97.8,208.5 118.7,186.5 139.6,203.9 160.5,186.5 181.5,190.6 202.4,200.7 223.3,195.7 244.2,194.3 265.1,186.0 286.0,187.9 306.9,194.8 327.8,199.8 348.7,184.6 369.6,191.5 390.5,194.3 411.5,189.2 432.4,182.4 453.3,195.7 474.2,195.7 495.1,194.3 516.0,187.4" /><polyline fill="none" stroke="#059669" stroke-width="2.5" points="56.0,220.9 76.9,220.6 97.8,220.9 118.7,220.5 139.6,221.3 160.5,220.2 181.5,220.3 202.4,220.4 223.3,220.0 244.2,220.1 265.1,219.9 286.0,219.5 306.9,219.1 327.8,219.5 348.7,218.9 369.6,219.0 390.5,218.8 411.5,218.4 432.4,218.4 453.3,218.2 474.2,218.3 495.1,218.3 516.0,218.3" /><polyline fill="none" stroke="#d97706" stroke-width="2.5" points="56.0,226.0 76.0,226.0 96.0,226.0 116.0,226.0 136.0,226.0 156.0,226.0 176.0,226.0 196.0,226.0 216.0,226.0 236.0,226.0 256.0,226.0 276.0,226.0 296.0,226.0 316.0,226.0 336.0,226.0 356.0,226.0 376.0,226.0 396.0,226.0 416.0,226.0 436.0,226.0 456.0,226.0 476.0,226.0 496.0,226.0 516.0,226.0" />
  <rect x="548" y="54" width="12" height="12" rx="2" fill="#2563eb" /><text x="568" y="64" font-size="12" fill="#111827">events count: 310</text><rect x="548" y="78" width="12" height="12" rx="2" fill="#dc2626" /><text x="568" y="88" font-size="12" fill="#111827">events array max: 84</text><rect x="548" y="102" width="12" height="12" rx="2" fill="#059669" /><text x="568" y="112" font-size="12" fill="#111827">events array std: 16.8</text><rect x="548" y="126" width="12" height="12" rx="2" fill="#d97706" /><text x="568" y="136" font-size="12" fill="#111827">events array count: 0</text>
</svg>
