<svg xmlns="http://www.w3.org/2000/svg" width="760" height="280" viewBox="0 0 760 280" role="img" aria-label="Force / Torque example plot">
  <rect width="100%" height="100%" fill="#ffffff" />
  <rect x="14" y="14" width="732" height="252" rx="12" fill="#f8fafc" stroke="#cbd5e1" />
  <text x="28" y="38" font-size="20" font-weight="700" fill="#0f172a">Force / Torque</text>
  <text x="28" y="258" font-size="12" fill="#475569">Generated from 24 synthetic timesteps (dt=0.05s) via examples/generate_sensor_doc_assets.py</text>
  <text x="28" y="54" font-size="12" fill="#475569">Representative scalar summaries extracted from the sensor observation dict</text>
  <line x1="56" y1="56.0" x2="516" y2="56.0" stroke="#e5e7eb" /><line x1="56" y1="98.5" x2="516" y2="98.5" stroke="#e5e7eb" /><line x1="56" y1="141.0" x2="516" y2="141.0" stroke="#e5e7eb" /><line x1="56" y1="183.5" x2="516" y2="183.5" stroke="#e5e7eb" /><line x1="56" y1="226.0" x2="516" y2="226.0" stroke="#e5e7eb" />
  <line x1="56" y1="56" x2="56" y2="226" stroke="#94a3b8" stroke-width="1.5" />
  <line x1="56" y1="226" x2="516" y2="226" stroke="#94a3b8" stroke-width="1.5" />
  <text x="18" y="64" font-size="11" fill="#64748b">0.126</text>
  <text x="18" y="226" font-size="11" fill="#64748b">-0.135</text>
  <polyline fill="none" stroke="#2563eb" stroke-width="2.5" points="56.0,133.9 76.0,176.7 96.0,176.1 116.0,140.4 136.0,81.5 156.0,170.4 176.0,133.3 196.0,113.5 216.0,116.1 236.0,75.0 256.0,56.0 276.0,148.5 296.0,136.7 316.0,100.4 336.0,84.4 356.0,137.5 376.0,127.2 396.0,157.6 416.0,226.0 436.0,113.5 456.0,110.9 476.0,157.2 496.0,170.2 516.0,128.0" /><polyline fill="none" stroke="#dc2626" stroke-width="2.5" points="56.0,177.5 76.0,138.6 96.0,115.2 116.0,62.0 136.0,115.8 156.0,126.0 176.0,132.5 196.0,165.7 216.0,172.5 236.0,172.4 256.0,154.0 276.0,119.3 296.0,118.1 316.0,125.8 336.0,142.5 356.0,189.3 376.0,96.2 396.0,137.0 416.0,72.8 436.0,195.9 456.0,148.1 476.0,149.6 496.0,204.2 516.0,169.3" /><polyline fill="none" stroke="#059669" stroke-width="2.5" points="56.0,145.7 76.0,124.9 96.0,82.5 116.0,131.2 136.0,192.4 156.0,164.7 176.0,126.6 196.0,122.3 216.0,204.2 236.0,104.9 256.0,122.6 276.0,132.1 296.0,106.1 316.0,129.0 336.0,145.2 356.0,131.7 376.0,103.5 396.0,116.4 416.0,174.4 436.0,178.7 456.0,129.4 476.0,151.0 496.0,196.4 516.0,128.8" /><polyline fill="none" stroke="#d97706" stroke-width="2.5" points="56.0,133.9 76.0,124.9 96.0,82.5 116.0,62.0 136.0,81.5 156.0,126.0 176.0,126.6 196.0,113.5 216.0,116.1 236.0,75.0 256.0,56.0 276.0,119.3 296.0,106.1 316.0,100.4 336.0,84.4 356.0,131.7 376.0,96.2 396.0,116.4 416.0,72.8 436.0,113.5 456.0,110.9 476.0,149.6 496.0,170.2 516.0,128.0" />
  <rect x="548" y="54" width="12" height="12" rx="2" fill="#2563eb" /><text x="568" y="64" font-size="12" fill="#111827">force n[1]: 0.0156</text><rect x="548" y="78" width="12" height="12" rx="2" fill="#dc2626" /><text x="568" y="88" font-size="12" fill="#111827">force n[0]: -0.0477</text><rect x="548" y="102" width="12" height="12" rx="2" fill="#059669" /><text x="568" y="112" font-size="12" fill="#111827">force n[2]: 0.0145</text><rect x="548" y="126" width="12" height="12" rx="2" fill="#d97706" /><text x="568" y="136" font-size="12" fill="#111827">force n max: 0.0156</text>
</svg>
