<svg xmlns="http://www.w3.org/2000/svg" width="760" height="280" viewBox="0 0 760 280" role="img" aria-label="Force / Torque example plot">
  <rect width="100%" height="100%" fill="#ffffff" />
  <rect x="14" y="14" width="732" height="252" rx="12" fill="#f8fafc" stroke="#cbd5e1" />
  <text x="28" y="38" font-size="20" font-weight="700" fill="#0f172a">Force / Torque</text>
  <text x="28" y="258" font-size="12" fill="#475569">Generated from 24 Genesis Franka demo timesteps (dt=0.05s) via examples/generate_sensor_doc_assets.py</text>
  <text x="28" y="54" font-size="12" fill="#475569">Representative scalar summaries extracted from the sensor observation dict</text>
  <line x1="56" y1="56.0" x2="516" y2="56.0" stroke="#e5e7eb" /><line x1="56" y1="98.5" x2="516" y2="98.5" stroke="#e5e7eb" /><line x1="56" y1="141.0" x2="516" y2="141.0" stroke="#e5e7eb" /><line x1="56" y1="183.5" x2="516" y2="183.5" stroke="#e5e7eb" /><line x1="56" y1="226.0" x2="516" y2="226.0" stroke="#e5e7eb" />
  <line x1="56" y1="56" x2="56" y2="226" stroke="#94a3b8" stroke-width="1.5" />
  <line x1="56" y1="226" x2="516" y2="226" stroke="#94a3b8" stroke-width="1.5" />
  <text x="18" y="64" font-size="11" fill="#64748b">0.127</text>
  <text x="18" y="226" font-size="11" fill="#64748b">-0.0996</text>
  <polyline fill="none" stroke="#2563eb" stroke-width="2.5" points="56.0,160.7 76.0,155.9 96.0,160.5 116.0,171.3 136.0,143.7 156.0,136.1 176.0,94.7 196.0,186.7 216.0,200.4 236.0,178.5 256.0,222.5 276.0,176.1 296.0,155.9 316.0,93.0 336.0,194.6 356.0,140.7 376.0,137.9 396.0,225.6 416.0,137.3 436.0,56.0 456.0,74.5 476.0,104.6 496.0,159.0 516.0,173.6" /><polyline fill="none" stroke="#dc2626" stroke-width="2.5" points="56.0,117.0 76.0,128.7 96.0,210.2 116.0,198.6 136.0,149.3 156.0,144.4 176.0,165.2 196.0,218.2 216.0,221.0 236.0,219.9 256.0,176.2 276.0,129.5 296.0,226.0 316.0,163.1 336.0,169.8 356.0,205.9 376.0,64.3 396.0,158.5 416.0,153.0 436.0,136.6 456.0,183.8 476.0,149.8 496.0,113.2 516.0,130.7" /><polyline fill="none" stroke="#059669" stroke-width="2.5" points="56.0,117.0 76.0,128.7 96.0,128.2 116.0,126.4 136.0,122.0 156.0,114.1 176.0,94.7 196.0,186.7 216.0,196.8 236.0,139.4 256.0,148.0 276.0,129.5 296.0,155.9 316.0,93.0 336.0,169.8 356.0,109.7 376.0,64.3 396.0,75.5 416.0,137.3 436.0,56.0 456.0,74.5 476.0,104.6 496.0,113.2 516.0,130.7" /><polyline fill="none" stroke="#d97706" stroke-width="2.5" points="56.0,150.8 76.0,137.6 96.0,128.2 116.0,126.4 136.0,122.0 156.0,114.1 176.0,167.0 196.0,208.2 216.0,196.8 236.0,139.4 256.0,148.0 276.0,169.3 296.0,157.9 316.0,164.7 336.0,204.2 356.0,109.7 376.0,209.2 396.0,75.5 416.0,141.7 436.0,115.5 456.0,120.0 476.0,154.7 496.0,167.6 516.0,172.0" />
  <rect x="548" y="54" width="12" height="12" rx="2" fill="#2563eb" /><text x="568" y="64" font-size="12" fill="#111827">force n[2]: -0.0299</text><rect x="548" y="78" width="12" height="12" rx="2" fill="#dc2626" /><text x="568" y="88" font-size="12" fill="#111827">force n[1]: 0.0273</text><rect x="548" y="102" width="12" height="12" rx="2" fill="#059669" /><text x="568" y="112" font-size="12" fill="#111827">force n max: 0.0273</text><rect x="548" y="126" width="12" height="12" rx="2" fill="#d97706" /><text x="568" y="136" font-size="12" fill="#111827">force n[0]: -0.0277</text>
</svg>
