<svg xmlns="http://www.w3.org/2000/svg" width="760" height="280" viewBox="0 0 760 280" role="img" aria-label="GNSS example plot">
  <rect width="100%" height="100%" fill="#ffffff" />
  <rect x="14" y="14" width="732" height="252" rx="12" fill="#f8fafc" stroke="#cbd5e1" />
  <text x="28" y="38" font-size="20" font-weight="700" fill="#0f172a">GNSS</text>
  <text x="28" y="258" font-size="12" fill="#475569">Generated from 24 Genesis perception demo timesteps (dt=0.05s) via examples/generate_sensor_doc_assets.py</text>
  <text x="28" y="54" font-size="12" fill="#475569">Representative scalar summaries extracted from the sensor observation dict</text>
  <line x1="56" y1="56.0" x2="516" y2="56.0" stroke="#e5e7eb" /><line x1="56" y1="98.5" x2="516" y2="98.5" stroke="#e5e7eb" /><line x1="56" y1="141.0" x2="516" y2="141.0" stroke="#e5e7eb" /><line x1="56" y1="183.5" x2="516" y2="183.5" stroke="#e5e7eb" /><line x1="56" y1="226.0" x2="516" y2="226.0" stroke="#e5e7eb" />
  <line x1="56" y1="56" x2="56" y2="226" stroke="#94a3b8" stroke-width="1.5" />
  <line x1="56" y1="226" x2="516" y2="226" stroke="#94a3b8" stroke-width="1.5" />
  <text x="18" y="64" font-size="11" fill="#64748b">7</text>
  <text x="18" y="226" font-size="11" fill="#64748b">-1.21</text>
  <polyline fill="none" stroke="#2563eb" stroke-width="2.5" points="56.0,201.0 76.0,201.0 96.0,201.0 116.0,201.0 136.0,201.0 156.0,201.0 176.0,201.0 196.0,201.0 216.0,201.0 236.0,201.0 256.0,201.0 276.0,201.0 296.0,201.0 316.0,201.0 336.0,201.0 356.0,201.0 376.0,201.0 396.0,201.0 416.0,201.0 436.0,201.0 456.0,201.0 476.0,201.0 496.0,201.0 516.0,201.0" /><polyline fill="none" stroke="#dc2626" stroke-width="2.5" points="56.0,76.7 76.0,76.7 96.0,76.7 116.0,76.7 136.0,76.7 156.0,76.7 176.0,76.7 196.0,76.7 216.0,97.4 236.0,97.4 256.0,97.4 276.0,97.4 296.0,97.4 316.0,97.4 336.0,97.4 356.0,97.4 376.0,76.7 396.0,76.7 416.0,76.7 436.0,76.7 456.0,56.0 476.0,56.0 496.0,56.0 516.0,56.0" /><polyline fill="none" stroke="#059669" stroke-width="2.5" points="56.0,201.1 76.0,201.1 96.0,201.1 116.0,201.1 136.0,200.8 156.0,200.8 176.0,200.8 196.0,200.8 216.0,201.8 236.0,201.8 256.0,201.8 276.0,201.8 296.0,209.8 316.0,209.8 336.0,209.8 356.0,209.8 376.0,226.0 396.0,226.0 416.0,226.0 436.0,226.0 456.0,224.7 476.0,224.7 496.0,224.7 516.0,224.7" /><polyline fill="none" stroke="#d97706" stroke-width="2.5" points="56.0,193.9 76.0,193.9 96.0,193.9 116.0,193.9 136.0,195.6 156.0,195.6 176.0,195.6 196.0,195.6 216.0,213.8 236.0,213.8 256.0,213.8 276.0,213.8 296.0,211.7 316.0,211.7 336.0,211.7 356.0,211.7 376.0,206.8 396.0,206.8 416.0,206.8 436.0,206.8 456.0,210.9 476.0,210.9 496.0,210.9 516.0,210.9" />
  <rect x="548" y="54" width="12" height="12" rx="2" fill="#2563eb" /><text x="568" y="64" font-size="12" fill="#111827">fix quality: 0</text><rect x="548" y="78" width="12" height="12" rx="2" fill="#dc2626" /><text x="568" y="88" font-size="12" fill="#111827">n satellites: 7</text><rect x="548" y="102" width="12" height="12" rx="2" fill="#059669" /><text x="568" y="112" font-size="12" fill="#111827">vel[0]: -1.14</text><rect x="548" y="126" width="12" height="12" rx="2" fill="#d97706" /><text x="568" y="136" font-size="12" fill="#111827">pos llh[2]: -0.479</text>
</svg>
