<svg xmlns="http://www.w3.org/2000/svg" width="760" height="280" viewBox="0 0 760 280" role="img" aria-label="IMU example plot">
  <rect width="100%" height="100%" fill="#ffffff" />
  <rect x="14" y="14" width="732" height="252" rx="12" fill="#f8fafc" stroke="#cbd5e1" />
  <text x="28" y="38" font-size="20" font-weight="700" fill="#0f172a">IMU</text>
  <text x="28" y="258" font-size="12" fill="#475569">Generated from 24 Genesis perception demo timesteps (dt=0.05s) via examples/generate_sensor_doc_assets.py</text>
  <text x="28" y="54" font-size="12" fill="#475569">Representative scalar summaries extracted from the sensor observation dict</text>
  <line x1="56" y1="56.0" x2="516" y2="56.0" stroke="#e5e7eb" /><line x1="56" y1="98.5" x2="516" y2="98.5" stroke="#e5e7eb" /><line x1="56" y1="141.0" x2="516" y2="141.0" stroke="#e5e7eb" /><line x1="56" y1="183.5" x2="516" y2="183.5" stroke="#e5e7eb" /><line x1="56" y1="226.0" x2="516" y2="226.0" stroke="#e5e7eb" />
  <line x1="56" y1="56" x2="56" y2="226" stroke="#94a3b8" stroke-width="1.5" />
  <line x1="56" y1="226" x2="516" y2="226" stroke="#94a3b8" stroke-width="1.5" />
  <text x="18" y="64" font-size="11" fill="#64748b">10.8</text>
  <text x="18" y="226" font-size="11" fill="#64748b">-4.39</text>
  <polyline fill="none" stroke="#2563eb" stroke-width="2.5" points="56.0,171.6 76.0,166.6 96.0,161.4 116.0,156.3 136.0,151.2 156.0,146.0 176.0,141.0 196.0,135.9 216.0,130.8 236.0,125.8 256.0,120.7 276.0,115.7 296.0,110.7 316.0,105.6 336.0,100.6 356.0,95.6 376.0,90.6 396.0,85.7 416.0,80.7 436.0,75.7 456.0,70.8 476.0,65.8 496.0,60.9 516.0,56.0" /><polyline fill="none" stroke="#dc2626" stroke-width="2.5" points="56.0,171.6 76.0,166.6 96.0,161.4 116.0,156.3 136.0,151.2 156.0,146.0 176.0,141.0 196.0,135.9 216.0,130.8 236.0,125.8 256.0,120.7 276.0,115.7 296.0,110.7 316.0,105.6 336.0,100.6 356.0,95.6 376.0,90.6 396.0,85.7 416.0,80.7 436.0,75.7 456.0,70.8 476.0,65.8 496.0,60.9 516.0,56.0" /><polyline fill="none" stroke="#059669" stroke-width="2.5" points="56.0,174.4 76.0,171.9 96.0,169.3 116.0,166.6 136.0,163.9 156.0,161.0 176.0,158.0 196.0,154.9 216.0,151.7 236.0,148.3 256.0,144.9 276.0,141.4 296.0,137.8 316.0,134.2 336.0,130.6 356.0,127.0 376.0,123.5 396.0,120.1 416.0,116.9 436.0,114.0 456.0,111.4 476.0,109.2 496.0,107.7 516.0,106.8" /><polyline fill="none" stroke="#d97706" stroke-width="2.5" points="56.0,176.7 76.0,176.8 96.0,176.8 116.0,176.9 136.0,177.0 156.0,177.1 176.0,177.5 196.0,178.2 216.0,179.1 236.0,180.3 256.0,182.1 276.0,184.4 296.0,187.3 316.0,190.7 336.0,194.9 356.0,199.5 376.0,204.5 396.0,209.7 416.0,214.8 436.0,219.4 456.0,223.1 476.0,225.5 496.0,226.0 516.0,224.3" />
  <rect x="548" y="54" width="12" height="12" rx="2" fill="#2563eb" /><text x="568" y="64" font-size="12" fill="#111827">ang vel max: 10.8</text><rect x="548" y="78" width="12" height="12" rx="2" fill="#dc2626" /><text x="568" y="88" font-size="12" fill="#111827">ang vel[2]: 10.8</text><rect x="548" y="102" width="12" height="12" rx="2" fill="#059669" /><text x="568" y="112" font-size="12" fill="#111827">ang vel std: 6.25</text><rect x="548" y="126" width="12" height="12" rx="2" fill="#d97706" /><text x="568" y="136" font-size="12" fill="#111827">ang vel[1]: -4.24</text>
</svg>
