<svg xmlns="http://www.w3.org/2000/svg" width="760" height="280" viewBox="0 0 760 280" role="img" aria-label="IMU example plot">
  <rect width="100%" height="100%" fill="#ffffff" />
  <rect x="14" y="14" width="732" height="252" rx="12" fill="#f8fafc" stroke="#cbd5e1" />
  <text x="28" y="38" font-size="20" font-weight="700" fill="#0f172a">IMU</text>
  <text x="28" y="258" font-size="12" fill="#475569">Generated from 24 synthetic timesteps (dt=0.05s) via examples/generate_sensor_doc_assets.py</text>
  <text x="28" y="54" font-size="12" fill="#475569">Representative scalar summaries extracted from the sensor observation dict</text>
  <line x1="56" y1="56.0" x2="516" y2="56.0" stroke="#e5e7eb" /><line x1="56" y1="98.5" x2="516" y2="98.5" stroke="#e5e7eb" /><line x1="56" y1="141.0" x2="516" y2="141.0" stroke="#e5e7eb" /><line x1="56" y1="183.5" x2="516" y2="183.5" stroke="#e5e7eb" /><line x1="56" y1="226.0" x2="516" y2="226.0" stroke="#e5e7eb" />
  <line x1="56" y1="56" x2="56" y2="226" stroke="#94a3b8" stroke-width="1.5" />
  <line x1="56" y1="226" x2="516" y2="226" stroke="#94a3b8" stroke-width="1.5" />
  <text x="18" y="64" font-size="11" fill="#64748b">10.1</text>
  <text x="18" y="226" font-size="11" fill="#64748b">-0.141</text>
  <polyline fill="none" stroke="#2563eb" stroke-width="2.5" points="56.0,223.2 76.0,224.6 96.0,222.3 116.0,224.9 136.0,222.0 156.0,223.5 176.0,223.8 196.0,223.7 216.0,222.8 236.0,224.9 256.0,225.8 276.0,223.8 296.0,224.0 316.0,222.9 336.0,223.9 356.0,223.9 376.0,223.3 396.0,224.0 416.0,224.6 436.0,223.8 456.0,224.2 476.0,220.7 496.0,223.6 516.0,224.3" /><polyline fill="none" stroke="#dc2626" stroke-width="2.5" points="56.0,224.0 76.0,225.2 96.0,224.2 116.0,224.6 136.0,223.7 156.0,223.0 176.0,223.4 196.0,226.0 216.0,225.7 236.0,224.7 256.0,223.7 276.0,224.8 296.0,225.1 316.0,225.0 336.0,223.5 356.0,224.3 376.0,222.6 396.0,224.1 416.0,225.9 436.0,222.3 456.0,222.4 476.0,223.7 496.0,225.2 516.0,224.1" /><polyline fill="none" stroke="#059669" stroke-width="2.5" points="56.0,58.1 76.0,58.1 96.0,57.7 116.0,57.5 136.0,57.3 156.0,57.7 176.0,58.3 196.0,57.0 216.0,56.4 236.0,58.4 256.0,57.5 276.0,58.6 296.0,56.0 316.0,59.2 336.0,57.4 356.0,58.4 376.0,58.5 396.0,58.2 416.0,59.4 436.0,58.0 456.0,58.4 476.0,58.4 496.0,60.5 516.0,57.9" /><polyline fill="none" stroke="#d97706" stroke-width="2.5" points="56.0,58.1 76.0,58.1 96.0,57.7 116.0,57.5 136.0,57.3 156.0,57.7 176.0,58.3 196.0,57.0 216.0,56.4 236.0,58.4 256.0,57.5 276.0,58.6 296.0,56.0 316.0,59.2 336.0,57.4 356.0,58.4 376.0,58.5 396.0,58.2 416.0,59.4 436.0,58.0 456.0,58.4 476.0,58.4 496.0,60.5 516.0,57.9" />
  <rect x="548" y="54" width="12" height="12" rx="2" fill="#2563eb" /><text x="568" y="64" font-size="12" fill="#111827">lin acc[0]: -0.0385</text><rect x="548" y="78" width="12" height="12" rx="2" fill="#dc2626" /><text x="568" y="88" font-size="12" fill="#111827">lin acc[1]: -0.0284</text><rect x="548" y="102" width="12" height="12" rx="2" fill="#059669" /><text x="568" y="112" font-size="12" fill="#111827">lin acc max: 9.96</text><rect x="548" y="126" width="12" height="12" rx="2" fill="#d97706" /><text x="568" y="136" font-size="12" fill="#111827">lin acc[2]: 9.96</text>
</svg>
