<svg xmlns="http://www.w3.org/2000/svg" width="760" height="280" viewBox="0 0 760 280" role="img" aria-label="Inclinometer example plot">
  <rect width="100%" height="100%" fill="#ffffff" />
  <rect x="14" y="14" width="732" height="252" rx="12" fill="#f8fafc" stroke="#cbd5e1" />
  <text x="28" y="38" font-size="20" font-weight="700" fill="#0f172a">Inclinometer</text>
  <text x="28" y="258" font-size="12" fill="#475569">Generated from 24 Genesis perception demo timesteps (dt=0.05s) via examples/generate_sensor_doc_assets.py</text>
  <text x="28" y="54" font-size="12" fill="#475569">Representative scalar summaries extracted from the sensor observation dict</text>
  <line x1="56" y1="56.0" x2="516" y2="56.0" stroke="#e5e7eb" /><line x1="56" y1="98.5" x2="516" y2="98.5" stroke="#e5e7eb" /><line x1="56" y1="141.0" x2="516" y2="141.0" stroke="#e5e7eb" /><line x1="56" y1="183.5" x2="516" y2="183.5" stroke="#e5e7eb" /><line x1="56" y1="226.0" x2="516" y2="226.0" stroke="#e5e7eb" />
  <line x1="56" y1="56" x2="56" y2="226" stroke="#94a3b8" stroke-width="1.5" />
  <line x1="56" y1="226" x2="516" y2="226" stroke="#94a3b8" stroke-width="1.5" />
  <text x="18" y="64" font-size="11" fill="#64748b">21.7</text>
  <text x="18" y="226" font-size="11" fill="#64748b">-22.7</text>
  <polyline fill="none" stroke="#2563eb" stroke-width="2.5" points="56.0,139.1 76.0,139.1 96.0,139.0 116.0,138.9 136.0,138.5 156.0,137.8 176.0,136.4 196.0,134.1 216.0,130.5 236.0,125.2 256.0,118.1 276.0,108.8 296.0,97.6 316.0,85.2 336.0,72.8 356.0,62.1 376.0,56.0 396.0,57.2 416.0,67.6 436.0,87.4 456.0,114.1 476.0,143.1 496.0,168.5 516.0,184.0" /><polyline fill="none" stroke="#dc2626" stroke-width="2.5" points="56.0,139.1 76.0,139.3 96.0,140.1 116.0,141.8 136.0,144.6 156.0,148.8 176.0,154.7 196.0,162.2 216.0,171.4 236.0,181.9 256.0,193.2 276.0,204.6 296.0,214.8 316.0,222.4 336.0,226.0 356.0,224.2 376.0,216.5 396.0,204.2 416.0,190.4 436.0,179.3 456.0,174.4 476.0,177.4 496.0,188.3 516.0,204.4" />
  <rect x="548" y="54" width="12" height="12" rx="2" fill="#2563eb" /><text x="568" y="64" font-size="12" fill="#111827">pitch deg: -11.7</text><rect x="548" y="78" width="12" height="12" rx="2" fill="#dc2626" /><text x="568" y="88" font-size="12" fill="#111827">roll deg: -17.1</text>
</svg>
