<svg xmlns="http://www.w3.org/2000/svg" width="760" height="280" viewBox="0 0 760 280" role="img" aria-label="Joint State example plot">
  <rect width="100%" height="100%" fill="#ffffff" />
  <rect x="14" y="14" width="732" height="252" rx="12" fill="#f8fafc" stroke="#cbd5e1" />
  <text x="28" y="38" font-size="20" font-weight="700" fill="#0f172a">Joint State</text>
  <text x="28" y="258" font-size="12" fill="#475569">Generated from 24 Genesis Franka demo timesteps (dt=0.05s) via examples/generate_sensor_doc_assets.py</text>
  <text x="28" y="54" font-size="12" fill="#475569">Representative scalar summaries extracted from the sensor observation dict</text>
  <line x1="56" y1="56.0" x2="516" y2="56.0" stroke="#e5e7eb" /><line x1="56" y1="98.5" x2="516" y2="98.5" stroke="#e5e7eb" /><line x1="56" y1="141.0" x2="516" y2="141.0" stroke="#e5e7eb" /><line x1="56" y1="183.5" x2="516" y2="183.5" stroke="#e5e7eb" /><line x1="56" y1="226.0" x2="516" y2="226.0" stroke="#e5e7eb" />
  <line x1="56" y1="56" x2="56" y2="226" stroke="#94a3b8" stroke-width="1.5" />
  <line x1="56" y1="226" x2="516" y2="226" stroke="#94a3b8" stroke-width="1.5" />
  <text x="18" y="64" font-size="11" fill="#64748b">371</text>
  <text x="18" y="226" font-size="11" fill="#64748b">-20.7</text>
  <polyline fill="none" stroke="#2563eb" stroke-width="2.5" points="56.0,177.5 76.0,177.3 96.0,176.8 116.0,176.1 136.0,175.2 156.0,173.9 176.0,172.4 196.0,170.6 216.0,211.9 236.0,211.7 256.0,211.5 276.0,211.3 296.0,211.1 316.0,210.8 336.0,210.6 356.0,210.4 376.0,183.9 396.0,182.9 416.0,181.7 436.0,180.3 456.0,179.1 476.0,56.0 496.0,177.8 516.0,177.5" /><polyline fill="none" stroke="#dc2626" stroke-width="2.5" points="56.0,191.9 76.0,193.4 96.0,196.1 116.0,193.8 136.0,194.9 156.0,194.9 176.0,194.4 196.0,193.7 216.0,199.9 236.0,200.5 256.0,200.6 276.0,200.6 296.0,200.6 316.0,200.6 336.0,200.8 356.0,201.0 376.0,203.2 396.0,202.6 416.0,202.0 436.0,201.2 456.0,200.4 476.0,124.7 496.0,198.4 516.0,198.7" /><polyline fill="none" stroke="#059669" stroke-width="2.5" points="56.0,209.8 76.0,206.8 96.0,213.9 116.0,217.5 136.0,216.1 156.0,215.2 176.0,214.7 196.0,214.4 216.0,224.9 236.0,226.0 256.0,225.8 276.0,225.6 296.0,225.4 316.0,225.2 336.0,225.0 356.0,224.7 376.0,213.7 396.0,213.8 416.0,213.9 436.0,214.0 456.0,214.1 476.0,218.1 496.0,211.3 516.0,214.9" /><polyline fill="none" stroke="#d97706" stroke-width="2.5" points="56.0,216.9 76.0,216.9 96.0,216.9 116.0,216.8 136.0,216.8 156.0,216.7 176.0,216.7 196.0,216.6 216.0,216.6 236.0,216.6 256.0,216.5 276.0,216.5 296.0,216.4 316.0,216.4 336.0,216.4 356.0,216.3 376.0,216.3 396.0,216.4 416.0,216.4 436.0,216.4 456.0,216.4 476.0,216.5 496.0,216.6 516.0,216.6" />
  <rect x="548" y="54" width="12" height="12" rx="2" fill="#2563eb" /><text x="568" y="64" font-size="12" fill="#111827">joint torque nm max: 91</text><rect x="548" y="78" width="12" height="12" rx="2" fill="#dc2626" /><text x="568" y="88" font-size="12" fill="#111827">joint torque nm std: 42.3</text><rect x="548" y="102" width="12" height="12" rx="2" fill="#059669" /><text x="568" y="112" font-size="12" fill="#111827">joint torque nm mean: 4.88</text><rect x="548" y="126" width="12" height="12" rx="2" fill="#d97706" /><text x="568" y="136" font-size="12" fill="#111827">joint vel rads std: 1.01</text>
</svg>
