<svg xmlns="http://www.w3.org/2000/svg" width="760" height="280" viewBox="0 0 760 280" role="img" aria-label="Joint State example plot">
  <rect width="100%" height="100%" fill="#ffffff" />
  <rect x="14" y="14" width="732" height="252" rx="12" fill="#f8fafc" stroke="#cbd5e1" />
  <text x="28" y="38" font-size="20" font-weight="700" fill="#0f172a">Joint State</text>
  <text x="28" y="258" font-size="12" fill="#475569">Generated from 24 synthetic timesteps (dt=0.05s) via examples/generate_sensor_doc_assets.py</text>
  <text x="28" y="54" font-size="12" fill="#475569">Representative scalar summaries extracted from the sensor observation dict</text>
  <line x1="56" y1="56.0" x2="516" y2="56.0" stroke="#e5e7eb" /><line x1="56" y1="98.5" x2="516" y2="98.5" stroke="#e5e7eb" /><line x1="56" y1="141.0" x2="516" y2="141.0" stroke="#e5e7eb" /><line x1="56" y1="183.5" x2="516" y2="183.5" stroke="#e5e7eb" /><line x1="56" y1="226.0" x2="516" y2="226.0" stroke="#e5e7eb" />
  <line x1="56" y1="56" x2="56" y2="226" stroke="#94a3b8" stroke-width="1.5" />
  <line x1="56" y1="226" x2="516" y2="226" stroke="#94a3b8" stroke-width="1.5" />
  <text x="18" y="64" font-size="11" fill="#64748b">0.0887</text>
  <text x="18" y="226" font-size="11" fill="#64748b">-0.102</text>
  <polyline fill="none" stroke="#2563eb" stroke-width="2.5" points="56.0,142.6 76.0,145.3 96.0,109.8 116.0,173.4 136.0,132.5 156.0,161.1 176.0,104.6 196.0,122.0 216.0,210.3 236.0,115.3 256.0,226.0 276.0,57.7 296.0,102.9 316.0,165.8 336.0,82.4 356.0,197.5 376.0,156.8 396.0,108.4 416.0,56.0 436.0,103.2 456.0,87.0 476.0,139.6 496.0,111.4 516.0,130.0" /><polyline fill="none" stroke="#dc2626" stroke-width="2.5" points="56.0,142.6 76.0,145.3 96.0,109.8 116.0,173.4 136.0,132.5 156.0,161.1 176.0,104.6 196.0,122.0 216.0,210.3 236.0,115.3 256.0,226.0 276.0,57.7 296.0,102.9 316.0,165.8 336.0,82.4 356.0,197.5 376.0,156.8 396.0,108.4 416.0,56.0 436.0,103.2 456.0,87.0 476.0,139.6 496.0,111.4 516.0,130.0" /><polyline fill="none" stroke="#059669" stroke-width="2.5" points="56.0,142.6 76.0,145.3 96.0,109.8 116.0,173.4 136.0,132.5 156.0,161.1 176.0,104.6 196.0,122.0 216.0,210.3 236.0,115.3 256.0,226.0 276.0,57.7 296.0,102.9 316.0,165.8 336.0,82.4 356.0,197.5 376.0,156.8 396.0,108.4 416.0,56.0 436.0,103.2 456.0,87.0 476.0,139.6 496.0,111.4 516.0,130.0" /><polyline fill="none" stroke="#d97706" stroke-width="2.5" points="56.0,135.2 76.0,135.2 96.0,135.2 116.0,135.3 136.0,136.2 156.0,135.5 176.0,134.9 196.0,133.9 216.0,136.2 236.0,134.0 256.0,134.9 276.0,135.4 296.0,135.0 316.0,135.4 336.0,134.7 356.0,135.1 376.0,134.9 396.0,134.7 416.0,134.5 436.0,134.9 456.0,135.7 476.0,135.1 496.0,134.4 516.0,134.9" />
  <rect x="548" y="54" width="12" height="12" rx="2" fill="#2563eb" /><text x="568" y="64" font-size="12" fill="#111827">joint torque nm mean: 0.00579</text><rect x="548" y="78" width="12" height="12" rx="2" fill="#dc2626" /><text x="568" y="88" font-size="12" fill="#111827">joint torque nm max: 0.00579</text><rect x="548" y="102" width="12" height="12" rx="2" fill="#059669" /><text x="568" y="112" font-size="12" fill="#111827">joint torque nm[0]: 0.00579</text><rect x="548" y="126" width="12" height="12" rx="2" fill="#d97706" /><text x="568" y="136" font-size="12" fill="#111827">joint vel rads mean: 0.000335</text>
</svg>
