<svg xmlns="http://www.w3.org/2000/svg" width="760" height="280" viewBox="0 0 760 280" role="img" aria-label="LiDAR example plot">
  <rect width="100%" height="100%" fill="#ffffff" />
  <rect x="14" y="14" width="732" height="252" rx="12" fill="#f8fafc" stroke="#cbd5e1" />
  <text x="28" y="38" font-size="20" font-weight="700" fill="#0f172a">LiDAR</text>
  <text x="28" y="258" font-size="12" fill="#475569">Generated from 24 synthetic timesteps (dt=0.05s) via examples/generate_sensor_doc_assets.py</text>
  <text x="28" y="54" font-size="12" fill="#475569">Representative scalar summaries extracted from the sensor observation dict</text>
  <line x1="56" y1="56.0" x2="516" y2="56.0" stroke="#e5e7eb" /><line x1="56" y1="98.5" x2="516" y2="98.5" stroke="#e5e7eb" /><line x1="56" y1="141.0" x2="516" y2="141.0" stroke="#e5e7eb" /><line x1="56" y1="183.5" x2="516" y2="183.5" stroke="#e5e7eb" /><line x1="56" y1="226.0" x2="516" y2="226.0" stroke="#e5e7eb" />
  <line x1="56" y1="56" x2="56" y2="226" stroke="#94a3b8" stroke-width="1.5" />
  <line x1="56" y1="226" x2="516" y2="226" stroke="#94a3b8" stroke-width="1.5" />
  <text x="18" y="64" font-size="11" fill="#64748b">7.58</text>
  <text x="18" y="226" font-size="11" fill="#64748b">1.33</text>
  <polyline fill="none" stroke="#2563eb" stroke-width="2.5" points="56.0,61.6 76.0,61.9 96.0,61.9 116.0,63.2 136.0,63.7 156.0,63.3 176.0,65.6 196.0,65.0 216.0,65.7 236.0,64.7 256.0,64.1 276.0,64.0 296.0,65.7 316.0,64.1 336.0,63.7 356.0,62.3 376.0,62.7 396.0,60.1 416.0,60.0 436.0,61.2 456.0,60.1 476.0,59.3 496.0,58.8 516.0,56.0" /><polyline fill="none" stroke="#dc2626" stroke-width="2.5" points="56.0,223.6 76.0,223.8 96.0,223.9 116.0,224.0 136.0,224.2 156.0,224.3 176.0,224.5 196.0,224.7 216.0,224.9 236.0,225.0 256.0,225.2 276.0,225.3 296.0,225.5 316.0,225.7 336.0,225.7 356.0,225.9 376.0,226.0 396.0,226.0 416.0,225.9 436.0,225.9 456.0,226.0 476.0,226.0 496.0,225.9 516.0,225.8" /><polyline fill="none" stroke="#059669" stroke-width="2.5" points="56.0,123.5 76.0,123.6 96.0,123.7 116.0,123.8 136.0,123.8 156.0,123.9 176.0,123.9 196.0,124.0 216.0,123.9 236.0,124.0 256.0,124.0 276.0,123.9 296.0,123.8 316.0,123.8 336.0,123.7 356.0,123.6 376.0,123.5 396.0,123.4 416.0,123.4 436.0,123.2 456.0,123.2 476.0,123.1 496.0,123.1 516.0,123.0" /><polyline fill="none" stroke="#d97706" stroke-width="2.5" points="56.0,68.5 76.0,69.5 96.0,69.7 116.0,70.3 136.0,70.9 156.0,69.4 176.0,70.6 196.0,72.3 216.0,70.7 236.0,72.3 256.0,73.5 276.0,71.7 296.0,74.1 316.0,71.8 336.0,71.4 356.0,70.0 376.0,70.4 396.0,68.0 416.0,69.6 436.0,69.0 456.0,67.9 476.0,67.1 496.0,67.1 516.0,64.0" />
  <rect x="548" y="54" width="12" height="12" rx="2" fill="#2563eb" /><text x="568" y="64" font-size="12" fill="#111827">range image max: 7.58</text><rect x="548" y="78" width="12" height="12" rx="2" fill="#dc2626" /><text x="568" y="88" font-size="12" fill="#111827">range image std: 1.34</text><rect x="548" y="102" width="12" height="12" rx="2" fill="#059669" /><text x="568" y="112" font-size="12" fill="#111827">range image mean: 5.12</text><rect x="548" y="126" width="12" height="12" rx="2" fill="#d97706" /><text x="568" y="136" font-size="12" fill="#111827">points max: 7.29</text>
</svg>
