<svg xmlns="http://www.w3.org/2000/svg" width="760" height="280" viewBox="0 0 760 280" role="img" aria-label="Load Cell example plot">
  <rect width="100%" height="100%" fill="#ffffff" />
  <rect x="14" y="14" width="732" height="252" rx="12" fill="#f8fafc" stroke="#cbd5e1" />
  <text x="28" y="38" font-size="20" font-weight="700" fill="#0f172a">Load Cell</text>
  <text x="28" y="258" font-size="12" fill="#475569">Generated from 24 Genesis perception demo timesteps (dt=0.05s) via examples/generate_sensor_doc_assets.py</text>
  <text x="28" y="54" font-size="12" fill="#475569">Representative scalar summaries extracted from the sensor observation dict</text>
  <line x1="56" y1="56.0" x2="516" y2="56.0" stroke="#e5e7eb" /><line x1="56" y1="98.5" x2="516" y2="98.5" stroke="#e5e7eb" /><line x1="56" y1="141.0" x2="516" y2="141.0" stroke="#e5e7eb" /><line x1="56" y1="183.5" x2="516" y2="183.5" stroke="#e5e7eb" /><line x1="56" y1="226.0" x2="516" y2="226.0" stroke="#e5e7eb" />
  <line x1="56" y1="56" x2="56" y2="226" stroke="#94a3b8" stroke-width="1.5" />
  <line x1="56" y1="226" x2="516" y2="226" stroke="#94a3b8" stroke-width="1.5" />
  <text x="18" y="64" font-size="11" fill="#64748b">53.7</text>
  <text x="18" y="226" font-size="11" fill="#64748b">0</text>
  <polyline fill="none" stroke="#2563eb" stroke-width="2.5" points="56.0,83.4 76.0,84.1 96.0,84.4 116.0,81.2 136.0,82.8 156.0,77.9 176.0,77.8 196.0,81.3 216.0,76.3 236.0,76.5 256.0,79.5 276.0,73.7 296.0,69.8 316.0,67.6 336.0,64.5 356.0,64.1 376.0,61.8 396.0,57.2 416.0,58.4 436.0,56.2 456.0,56.0 476.0,57.2 496.0,57.5 516.0,58.2" /><polyline fill="none" stroke="#dc2626" stroke-width="2.5" points="56.0,211.5 76.0,211.5 96.0,211.6 116.0,211.2 136.0,211.4 156.0,210.9 176.0,210.9 196.0,211.2 216.0,210.7 236.0,210.8 256.0,211.1 276.0,210.5 296.0,210.1 316.0,209.8 336.0,209.5 356.0,209.5 376.0,209.3 396.0,208.8 416.0,208.9 436.0,208.7 456.0,208.7 476.0,208.8 496.0,208.8 516.0,208.9" /><polyline fill="none" stroke="#059669" stroke-width="2.5" points="56.0,226.0 76.0,226.0 96.0,226.0 116.0,226.0 136.0,226.0 156.0,226.0 176.0,226.0 196.0,226.0 216.0,226.0 236.0,226.0 256.0,226.0 276.0,226.0 296.0,226.0 316.0,226.0 336.0,226.0 356.0,226.0 376.0,226.0 396.0,226.0 416.0,226.0 436.0,226.0 456.0,226.0 476.0,226.0 496.0,226.0 516.0,226.0" />
  <rect x="548" y="54" width="12" height="12" rx="2" fill="#2563eb" /><text x="568" y="64" font-size="12" fill="#111827">force n: 53.1</text><rect x="548" y="78" width="12" height="12" rx="2" fill="#dc2626" /><text x="568" y="88" font-size="12" fill="#111827">weight kg: 5.41</text><rect x="548" y="102" width="12" height="12" rx="2" fill="#059669" /><text x="568" y="112" font-size="12" fill="#111827">overload: 0</text>
</svg>
