<svg xmlns="http://www.w3.org/2000/svg" width="760" height="280" viewBox="0 0 760 280" role="img" aria-label="Magnetometer example plot">
  <rect width="100%" height="100%" fill="#ffffff" />
  <rect x="14" y="14" width="732" height="252" rx="12" fill="#f8fafc" stroke="#cbd5e1" />
  <text x="28" y="38" font-size="20" font-weight="700" fill="#0f172a">Magnetometer</text>
  <text x="28" y="258" font-size="12" fill="#475569">Generated from 24 Genesis perception demo timesteps (dt=0.05s) via examples/generate_sensor_doc_assets.py</text>
  <text x="28" y="54" font-size="12" fill="#475569">Representative scalar summaries extracted from the sensor observation dict</text>
  <line x1="56" y1="56.0" x2="516" y2="56.0" stroke="#e5e7eb" /><line x1="56" y1="98.5" x2="516" y2="98.5" stroke="#e5e7eb" /><line x1="56" y1="141.0" x2="516" y2="141.0" stroke="#e5e7eb" /><line x1="56" y1="183.5" x2="516" y2="183.5" stroke="#e5e7eb" /><line x1="56" y1="226.0" x2="516" y2="226.0" stroke="#e5e7eb" />
  <line x1="56" y1="56" x2="56" y2="226" stroke="#94a3b8" stroke-width="1.5" />
  <line x1="56" y1="226" x2="516" y2="226" stroke="#94a3b8" stroke-width="1.5" />
  <text x="18" y="64" font-size="11" fill="#64748b">33.4</text>
  <text x="18" y="226" font-size="11" fill="#64748b">-17.5</text>
  <polyline fill="none" stroke="#2563eb" stroke-width="2.5" points="56.0,170.5 76.0,161.8 96.0,156.1 116.0,152.2 136.0,142.3 156.0,130.9 176.0,119.9 196.0,102.2 216.0,91.3 236.0,78.7 256.0,70.9 276.0,65.3 296.0,66.0 316.0,73.6 336.0,88.5 356.0,112.0 376.0,140.8 396.0,168.8 416.0,198.7 436.0,210.5 456.0,214.6 476.0,200.0 496.0,172.3 516.0,138.1" /><polyline fill="none" stroke="#dc2626" stroke-width="2.5" points="56.0,84.8 76.0,83.9 96.0,87.2 116.0,83.8 136.0,83.2 156.0,86.1 176.0,91.8 196.0,93.2 216.0,100.7 236.0,110.6 256.0,124.6 276.0,142.0 296.0,159.4 316.0,172.1 336.0,189.6 356.0,194.2 376.0,191.9 396.0,176.5 416.0,149.5 436.0,120.2 456.0,88.5 476.0,66.3 496.0,56.0 516.0,68.1" /><polyline fill="none" stroke="#059669" stroke-width="2.5" points="56.0,84.8 76.0,83.9 96.0,87.2 116.0,83.8 136.0,83.2 156.0,86.1 176.0,91.8 196.0,93.2 216.0,91.3 236.0,78.7 256.0,70.9 276.0,65.3 296.0,66.0 316.0,73.6 336.0,88.5 356.0,112.0 376.0,140.8 396.0,168.8 416.0,149.5 436.0,120.2 456.0,88.5 476.0,66.3 496.0,56.0 516.0,68.1" /><polyline fill="none" stroke="#d97706" stroke-width="2.5" points="56.0,189.3 76.0,187.0 96.0,185.4 116.0,182.3 136.0,177.9 156.0,175.4 176.0,172.4 196.0,165.6 216.0,164.8 236.0,162.6 256.0,164.4 276.0,168.6 296.0,174.4 316.0,183.7 336.0,197.5 356.0,209.4 376.0,221.1 396.0,225.6 416.0,226.0 436.0,217.2 456.0,204.0 476.0,187.1 496.0,173.1 516.0,167.4" />
  <rect x="548" y="54" width="12" height="12" rx="2" fill="#2563eb" /><text x="568" y="64" font-size="12" fill="#111827">mag field ut[0]: 8.8</text><rect x="548" y="78" width="12" height="12" rx="2" fill="#dc2626" /><text x="568" y="88" font-size="12" fill="#111827">mag field ut[1]: 29.8</text><rect x="548" y="102" width="12" height="12" rx="2" fill="#059669" /><text x="568" y="112" font-size="12" fill="#111827">mag field ut max: 29.8</text><rect x="548" y="126" width="12" height="12" rx="2" fill="#d97706" /><text x="568" y="136" font-size="12" fill="#111827">mag field ut mean: 0.0267</text>
</svg>
