<svg xmlns="http://www.w3.org/2000/svg" width="760" height="280" viewBox="0 0 760 280" role="img" aria-label="Optical Flow example plot">
  <rect width="100%" height="100%" fill="#ffffff" />
  <rect x="14" y="14" width="732" height="252" rx="12" fill="#f8fafc" stroke="#cbd5e1" />
  <text x="28" y="38" font-size="20" font-weight="700" fill="#0f172a">Optical Flow</text>
  <text x="28" y="258" font-size="12" fill="#475569">Generated from 24 Genesis perception demo timesteps (dt=0.05s) via examples/generate_sensor_doc_assets.py</text>
  <text x="28" y="54" font-size="12" fill="#475569">Representative scalar summaries extracted from the sensor observation dict</text>
  <line x1="56" y1="56.0" x2="516" y2="56.0" stroke="#e5e7eb" /><line x1="56" y1="98.5" x2="516" y2="98.5" stroke="#e5e7eb" /><line x1="56" y1="141.0" x2="516" y2="141.0" stroke="#e5e7eb" /><line x1="56" y1="183.5" x2="516" y2="183.5" stroke="#e5e7eb" /><line x1="56" y1="226.0" x2="516" y2="226.0" stroke="#e5e7eb" />
  <line x1="56" y1="56" x2="56" y2="226" stroke="#94a3b8" stroke-width="1.5" />
  <line x1="56" y1="226" x2="516" y2="226" stroke="#94a3b8" stroke-width="1.5" />
  <text x="18" y="64" font-size="11" fill="#64748b">220</text>
  <text x="18" y="226" font-size="11" fill="#64748b">-1.2</text>
  <polyline fill="none" stroke="#2563eb" stroke-width="2.5" points="56.0,56.0 76.0,56.0 96.0,56.0 116.0,56.0 136.0,56.0 156.0,56.0 176.0,56.0 196.0,56.0 216.0,56.0 236.0,56.0 256.0,56.0 276.0,56.0 296.0,56.0 316.0,56.0 336.0,56.0 356.0,56.0 376.0,56.0 396.0,62.9 416.0,77.5 436.0,84.4 456.0,83.7 476.0,79.1 496.0,78.3 516.0,92.9" /><polyline fill="none" stroke="#dc2626" stroke-width="2.5" points="56.0,225.1 76.0,225.1 96.0,225.1 116.0,225.1 136.0,225.1 156.0,225.1 176.0,225.1 196.0,225.0 216.0,225.0 236.0,224.9 256.0,224.9 276.0,224.8 296.0,224.6 316.0,224.5 336.0,224.1 356.0,223.9 376.0,223.5 396.0,223.5 416.0,223.5 436.0,223.5 456.0,223.4 476.0,223.6 496.0,223.5 516.0,223.3" /><polyline fill="none" stroke="#059669" stroke-width="2.5" points="56.0,225.1 76.0,225.1 96.0,225.1 116.0,225.1 136.0,225.1 156.0,225.1 176.0,225.0 196.0,225.0 216.0,225.0 236.0,224.9 256.0,224.8 276.0,224.8 296.0,224.7 316.0,224.7 336.0,224.7 356.0,224.8 376.0,225.1 396.0,225.3 416.0,225.6 436.0,225.8 456.0,226.0 476.0,226.0 496.0,225.9 516.0,225.8" /><polyline fill="none" stroke="#d97706" stroke-width="2.5" points="56.0,224.5 76.0,224.5 96.0,224.5 116.0,224.5 136.0,224.5 156.0,224.5 176.0,224.5 196.0,224.5 216.0,224.5 236.0,224.5 256.0,224.5 276.0,224.5 296.0,224.5 316.0,224.5 336.0,224.6 356.0,224.6 376.0,224.6 396.0,224.6 416.0,224.6 436.0,224.6 456.0,224.6 476.0,224.7 496.0,224.7 516.0,224.7" />
  <rect x="548" y="54" width="12" height="12" rx="2" fill="#2563eb" /><text x="568" y="64" font-size="12" fill="#111827">quality: 172</text><rect x="548" y="78" width="12" height="12" rx="2" fill="#dc2626" /><text x="568" y="88" font-size="12" fill="#111827">flow rate y rad s: 2.27</text><rect x="548" y="102" width="12" height="12" rx="2" fill="#059669" /><text x="568" y="112" font-size="12" fill="#111827">flow rate x rad s: -0.995</text><rect x="548" y="126" width="12" height="12" rx="2" fill="#d97706" /><text x="568" y="136" font-size="12" fill="#111827">ground distance m: 0.506</text>
</svg>
