<svg xmlns="http://www.w3.org/2000/svg" width="760" height="280" viewBox="0 0 760 280" role="img" aria-label="Optical Flow example plot">
  <rect width="100%" height="100%" fill="#ffffff" />
  <rect x="14" y="14" width="732" height="252" rx="12" fill="#f8fafc" stroke="#cbd5e1" />
  <text x="28" y="38" font-size="20" font-weight="700" fill="#0f172a">Optical Flow</text>
  <text x="28" y="258" font-size="12" fill="#475569">Generated from 24 synthetic timesteps (dt=0.05s) via examples/generate_sensor_doc_assets.py</text>
  <text x="28" y="54" font-size="12" fill="#475569">Representative scalar summaries extracted from the sensor observation dict</text>
  <line x1="56" y1="56.0" x2="516" y2="56.0" stroke="#e5e7eb" /><line x1="56" y1="98.5" x2="516" y2="98.5" stroke="#e5e7eb" /><line x1="56" y1="141.0" x2="516" y2="141.0" stroke="#e5e7eb" /><line x1="56" y1="183.5" x2="516" y2="183.5" stroke="#e5e7eb" /><line x1="56" y1="226.0" x2="516" y2="226.0" stroke="#e5e7eb" />
  <line x1="56" y1="56" x2="56" y2="226" stroke="#94a3b8" stroke-width="1.5" />
  <line x1="56" y1="226" x2="516" y2="226" stroke="#94a3b8" stroke-width="1.5" />
  <text x="18" y="64" font-size="11" fill="#64748b">220</text>
  <text x="18" y="226" font-size="11" fill="#64748b">-0.0589</text>
  <polyline fill="none" stroke="#2563eb" stroke-width="2.5" points="56.0,56.8 76.0,56.8 96.0,56.8 116.0,56.8 136.0,56.8 156.0,56.8 176.0,56.8 196.0,56.8 216.0,56.8 236.0,56.8 256.0,56.8 276.0,56.8 296.0,56.8 316.0,56.8 336.0,56.8 356.0,56.8 376.0,56.8 396.0,56.8 416.0,56.8 436.0,56.8 456.0,56.8 476.0,56.8 496.0,56.0 516.0,56.0" /><polyline fill="none" stroke="#dc2626" stroke-width="2.5" points="56.0,225.8 76.0,225.8 96.0,225.8 116.0,225.8 136.0,225.8 156.0,225.8 176.0,225.8 196.0,225.8 216.0,225.8 236.0,225.8 256.0,225.8 276.0,225.8 296.0,225.8 316.0,225.8 336.0,225.8 356.0,225.8 376.0,225.8 396.0,225.8 416.0,225.8 436.0,225.8 456.0,225.8 476.0,225.8 496.0,225.8 516.0,225.8" /><polyline fill="none" stroke="#059669" stroke-width="2.5" points="56.0,226.0 76.0,226.0 96.0,226.0 116.0,226.0 136.0,226.0 156.0,226.0 176.0,226.0 196.0,226.0 216.0,226.0 236.0,226.0 256.0,226.0 276.0,226.0 296.0,226.0 316.0,226.0 336.0,226.0 356.0,226.0 376.0,226.0 396.0,226.0 416.0,226.0 436.0,226.0 456.0,226.0 476.0,226.0 496.0,226.0 516.0,226.0" /><polyline fill="none" stroke="#d97706" stroke-width="2.5" points="56.0,224.4 76.0,224.4 96.0,224.4 116.0,224.4 136.0,224.4 156.0,224.4 176.0,224.4 196.0,224.4 216.0,224.4 236.0,224.4 256.0,224.4 276.0,224.4 296.0,224.4 316.0,224.4 336.0,224.4 356.0,224.4 376.0,224.4 396.0,224.4 416.0,224.4 436.0,224.4 456.0,224.4 476.0,224.4 496.0,224.4 516.0,224.4" />
  <rect x="548" y="54" width="12" height="12" rx="2" fill="#2563eb" /><text x="568" y="64" font-size="12" fill="#111827">quality: 220</text><rect x="548" y="78" width="12" height="12" rx="2" fill="#dc2626" /><text x="568" y="88" font-size="12" fill="#111827">flow rate x rad s: 0.171</text><rect x="548" y="102" width="12" height="12" rx="2" fill="#059669" /><text x="568" y="112" font-size="12" fill="#111827">flow rate y rad s: -0.0589</text><rect x="548" y="126" width="12" height="12" rx="2" fill="#d97706" /><text x="568" y="136" font-size="12" fill="#111827">ground distance m: 2.04</text>
</svg>
