<svg xmlns="http://www.w3.org/2000/svg" width="760" height="280" viewBox="0 0 760 280" role="img" aria-label="Proximity ToF example plot">
  <rect width="100%" height="100%" fill="#ffffff" />
  <rect x="14" y="14" width="732" height="252" rx="12" fill="#f8fafc" stroke="#cbd5e1" />
  <text x="28" y="38" font-size="20" font-weight="700" fill="#0f172a">Proximity ToF</text>
  <text x="28" y="258" font-size="12" fill="#475569">Generated from 24 Genesis perception demo timesteps (dt=0.05s) via examples/generate_sensor_doc_assets.py</text>
  <text x="28" y="54" font-size="12" fill="#475569">Representative scalar summaries extracted from the sensor observation dict</text>
  <line x1="56" y1="56.0" x2="516" y2="56.0" stroke="#e5e7eb" /><line x1="56" y1="98.5" x2="516" y2="98.5" stroke="#e5e7eb" /><line x1="56" y1="141.0" x2="516" y2="141.0" stroke="#e5e7eb" /><line x1="56" y1="183.5" x2="516" y2="183.5" stroke="#e5e7eb" /><line x1="56" y1="226.0" x2="516" y2="226.0" stroke="#e5e7eb" />
  <line x1="56" y1="56" x2="56" y2="226" stroke="#94a3b8" stroke-width="1.5" />
  <line x1="56" y1="226" x2="516" y2="226" stroke="#94a3b8" stroke-width="1.5" />
  <text x="18" y="64" font-size="11" fill="#64748b">0.674</text>
  <text x="18" y="226" font-size="11" fill="#64748b">0.0447</text>
  <polyline fill="none" stroke="#2563eb" stroke-width="2.5" points="56.0,145.7 76.0,145.7 96.0,141.8 116.0,141.8 136.0,134.7 156.0,134.7 176.0,128.3 196.0,128.3 216.0,123.9 236.0,123.9 256.0,126.0 276.0,126.0 296.0,124.9 316.0,124.9 336.0,127.5 356.0,127.5 376.0,129.9 396.0,129.9 416.0,134.4 436.0,134.4 456.0,140.3 476.0,140.3 496.0,148.1 516.0,148.1" /><polyline fill="none" stroke="#dc2626" stroke-width="2.5" points="56.0,56.0 76.0,56.0 96.0,57.1 116.0,57.1 136.0,63.1 156.0,63.1 176.0,70.4 196.0,70.4 216.0,78.3 236.0,78.3 256.0,75.4 276.0,75.4 296.0,73.9 316.0,73.9 336.0,72.8 356.0,72.8 376.0,70.7 396.0,70.7 416.0,68.8 436.0,68.8 456.0,65.8 476.0,65.8 496.0,68.7 516.0,68.7" /><polyline fill="none" stroke="#059669" stroke-width="2.5" points="56.0,215.6 76.0,215.6 96.0,217.4 116.0,217.4 136.0,219.4 156.0,219.4 176.0,222.3 196.0,222.3 216.0,225.0 236.0,225.0 256.0,226.0 276.0,226.0 296.0,225.9 316.0,225.9 336.0,224.2 356.0,224.2 376.0,222.3 396.0,222.3 416.0,220.6 436.0,220.6 456.0,218.9 476.0,218.9 496.0,217.9 516.0,217.9" /><polyline fill="none" stroke="#d97706" stroke-width="2.5" points="56.0,100.8 76.0,100.8 96.0,99.3 116.0,99.3 136.0,98.0 156.0,98.0 176.0,97.0 196.0,97.0 216.0,96.6 236.0,96.6 256.0,97.0 276.0,97.0 296.0,98.2 316.0,98.2 336.0,99.7 356.0,99.7 376.0,101.7 396.0,101.7 416.0,103.1 436.0,103.1 456.0,104.8 476.0,104.8 496.0,105.6 516.0,105.6" />
  <rect x="548" y="54" width="12" height="12" rx="2" fill="#2563eb" /><text x="568" y="64" font-size="12" fill="#111827">min range m: 0.333</text><rect x="548" y="78" width="12" height="12" rx="2" fill="#dc2626" /><text x="568" y="88" font-size="12" fill="#111827">range image max: 0.627</text><rect x="548" y="102" width="12" height="12" rx="2" fill="#059669" /><text x="568" y="112" font-size="12" fill="#111827">range image std: 0.0748</text><rect x="548" y="126" width="12" height="12" rx="2" fill="#d97706" /><text x="568" y="136" font-size="12" fill="#111827">range image mean: 0.491</text>
</svg>
