<svg xmlns="http://www.w3.org/2000/svg" width="760" height="280" viewBox="0 0 760 280" role="img" aria-label="Radar example plot">
  <rect width="100%" height="100%" fill="#ffffff" />
  <rect x="14" y="14" width="732" height="252" rx="12" fill="#f8fafc" stroke="#cbd5e1" />
  <text x="28" y="38" font-size="20" font-weight="700" fill="#0f172a">Radar</text>
  <text x="28" y="258" font-size="12" fill="#475569">Generated from 24 synthetic timesteps (dt=0.05s) via examples/generate_sensor_doc_assets.py</text>
  <text x="28" y="54" font-size="12" fill="#475569">Representative scalar summaries extracted from the sensor observation dict</text>
  <line x1="56" y1="56.0" x2="516" y2="56.0" stroke="#e5e7eb" /><line x1="56" y1="98.5" x2="516" y2="98.5" stroke="#e5e7eb" /><line x1="56" y1="141.0" x2="516" y2="141.0" stroke="#e5e7eb" /><line x1="56" y1="183.5" x2="516" y2="183.5" stroke="#e5e7eb" /><line x1="56" y1="226.0" x2="516" y2="226.0" stroke="#e5e7eb" />
  <line x1="56" y1="56" x2="56" y2="226" stroke="#94a3b8" stroke-width="1.5" />
  <line x1="56" y1="226" x2="516" y2="226" stroke="#94a3b8" stroke-width="1.5" />
  <text x="18" y="64" font-size="11" fill="#64748b">42.7</text>
  <text x="18" y="226" font-size="11" fill="#64748b">3.69</text>
  <polyline fill="none" stroke="#2563eb" stroke-width="2.5" points="56.0,155.8 76.0,155.8 96.0,155.9 116.0,155.9 136.0,156.0 156.0,156.1 176.0,156.1 196.0,156.1 216.0,56.0 236.0,156.2 256.0,156.3 276.0,156.3 296.0,156.3 316.0,156.3 336.0,156.3 356.0,156.3 376.0,156.3 396.0,157.0 416.0,157.0 436.0,157.0 456.0,157.0 476.0,156.2 496.0,156.2 516.0,156.1" /><polyline fill="none" stroke="#dc2626" stroke-width="2.5" points="56.0,198.2 76.0,199.1 96.0,198.9 116.0,198.9 136.0,198.2 156.0,198.5 176.0,198.7 196.0,198.2 216.0,171.7 236.0,198.8 256.0,198.4 276.0,198.2 296.0,198.6 316.0,198.7 336.0,198.7 356.0,198.4 376.0,198.4 396.0,199.2 416.0,198.0 436.0,197.9 456.0,198.2 476.0,199.0 496.0,198.6 516.0,198.8" /><polyline fill="none" stroke="#059669" stroke-width="2.5" points="56.0,198.8 76.0,198.7 96.0,198.7 116.0,198.8 136.0,198.9 156.0,206.6 176.0,198.8 196.0,198.7 216.0,177.9 236.0,198.9 256.0,199.2 276.0,198.8 296.0,199.1 316.0,199.2 336.0,199.0 356.0,207.9 376.0,207.3 396.0,199.2 416.0,199.2 436.0,199.1 456.0,199.1 476.0,198.5 496.0,199.1 516.0,198.9" /><polyline fill="none" stroke="#d97706" stroke-width="2.5" points="56.0,225.8 76.0,226.0 96.0,225.8 116.0,225.7 136.0,225.4 156.0,217.3 176.0,225.6 196.0,225.4 216.0,215.6 236.0,225.5 256.0,225.2 276.0,225.3 296.0,225.1 316.0,225.1 336.0,225.2 356.0,215.3 376.0,216.1 396.0,225.0 416.0,225.2 436.0,224.8 456.0,224.7 476.0,224.8 496.0,224.4 516.0,224.6" />
  <rect x="548" y="54" width="12" height="12" rx="2" fill="#2563eb" /><text x="568" y="64" font-size="12" fill="#111827">detections max: 19.7</text><rect x="548" y="78" width="12" height="12" rx="2" fill="#dc2626" /><text x="568" y="88" font-size="12" fill="#111827">points xyz max: 9.92</text><rect x="548" y="102" width="12" height="12" rx="2" fill="#059669" /><text x="568" y="112" font-size="12" fill="#111827">detections std: 9.9</text><rect x="548" y="126" width="12" height="12" rx="2" fill="#d97706" /><text x="568" y="136" font-size="12" fill="#111827">detections mean: 4.02</text>
</svg>
