<svg xmlns="http://www.w3.org/2000/svg" width="760" height="280" viewBox="0 0 760 280" role="img" aria-label="Side-Scan Sonar example plot">
  <rect width="100%" height="100%" fill="#ffffff" />
  <rect x="14" y="14" width="732" height="252" rx="12" fill="#f8fafc" stroke="#cbd5e1" />
  <text x="28" y="38" font-size="20" font-weight="700" fill="#0f172a">Side-Scan Sonar</text>
  <text x="28" y="258" font-size="12" fill="#475569">Generated from 24 synthetic timesteps (dt=0.05s) via examples/generate_sensor_doc_assets.py</text>
  <text x="28" y="54" font-size="12" fill="#475569">Representative scalar summaries extracted from the sensor observation dict</text>
  <line x1="56" y1="56.0" x2="516" y2="56.0" stroke="#e5e7eb" /><line x1="56" y1="98.5" x2="516" y2="98.5" stroke="#e5e7eb" /><line x1="56" y1="141.0" x2="516" y2="141.0" stroke="#e5e7eb" /><line x1="56" y1="183.5" x2="516" y2="183.5" stroke="#e5e7eb" /><line x1="56" y1="226.0" x2="516" y2="226.0" stroke="#e5e7eb" />
  <line x1="56" y1="56" x2="56" y2="226" stroke="#94a3b8" stroke-width="1.5" />
  <line x1="56" y1="226" x2="516" y2="226" stroke="#94a3b8" stroke-width="1.5" />
  <text x="18" y="64" font-size="11" fill="#64748b">200</text>
  <text x="18" y="226" font-size="11" fill="#64748b">0.69</text>
  <polyline fill="none" stroke="#2563eb" stroke-width="2.5" points="56.0,177.4 76.0,177.4 96.0,177.4 116.0,177.4 136.0,177.4 156.0,177.4 176.0,177.4 196.0,177.4 216.0,177.4 236.0,177.4 256.0,177.4 276.0,177.4 296.0,177.4 316.0,177.4 336.0,177.4 356.0,177.4 376.0,177.4 396.0,177.4 416.0,177.4 436.0,177.4 456.0,177.4 476.0,177.4 496.0,177.4 516.0,177.4" /><polyline fill="none" stroke="#dc2626" stroke-width="2.5" points="56.0,140.9 76.0,140.9 96.0,140.9 116.0,140.9 136.0,140.9 156.0,140.9 176.0,140.9 196.0,140.9 216.0,140.9 236.0,140.9 256.0,140.9 276.0,140.9 296.0,140.9 316.0,140.9 336.0,140.9 356.0,140.9 376.0,140.9 396.0,140.9 416.0,140.9 436.0,140.9 456.0,140.9 476.0,140.9 496.0,140.9 516.0,140.9" /><polyline fill="none" stroke="#059669" stroke-width="2.5" points="56.0,56.0 76.0,56.0 96.0,56.0 116.0,56.0 136.0,56.0 156.0,56.0 176.0,56.0 196.0,56.0 216.0,56.0 236.0,56.0 256.0,56.0 276.0,56.0 296.0,56.0 316.0,56.0 336.0,56.0 356.0,56.0 376.0,56.0 396.0,56.0 416.0,56.0 436.0,56.0 456.0,56.0 476.0,56.0 496.0,56.0 516.0,56.0" /><polyline fill="none" stroke="#d97706" stroke-width="2.5" points="56.0,225.9 76.0,225.9 96.0,225.9 116.0,225.9 136.0,225.9 156.0,225.9 176.0,226.0 196.0,226.0 216.0,226.0 236.0,226.0 256.0,226.0 276.0,226.0 296.0,226.0 316.0,226.0 336.0,226.0 356.0,226.0 376.0,226.0 396.0,226.0 416.0,226.0 436.0,226.0 456.0,226.0 476.0,225.9 496.0,225.9 516.0,226.0" />
  <rect x="548" y="54" width="12" height="12" rx="2" fill="#2563eb" /><text x="568" y="64" font-size="12" fill="#111827">slant range axis m std: 57.7</text><rect x="548" y="78" width="12" height="12" rx="2" fill="#dc2626" /><text x="568" y="88" font-size="12" fill="#111827">slant range axis m mean: 100</text><rect x="548" y="102" width="12" height="12" rx="2" fill="#059669" /><text x="568" y="112" font-size="12" fill="#111827">slant range axis m max: 200</text><rect x="548" y="126" width="12" height="12" rx="2" fill="#d97706" /><text x="568" y="136" font-size="12" fill="#111827">port intensity max: 0.734</text>
</svg>
