<svg xmlns="http://www.w3.org/2000/svg" width="760" height="280" viewBox="0 0 760 280" role="img" aria-label="Stereo Camera example plot">
  <rect width="100%" height="100%" fill="#ffffff" />
  <rect x="14" y="14" width="732" height="252" rx="12" fill="#f8fafc" stroke="#cbd5e1" />
  <text x="28" y="38" font-size="20" font-weight="700" fill="#0f172a">Stereo Camera</text>
  <text x="28" y="258" font-size="12" fill="#475569">Generated from 24 synthetic timesteps (dt=0.05s) via examples/generate_sensor_doc_assets.py</text>
  <text x="28" y="54" font-size="12" fill="#475569">Representative scalar summaries extracted from the sensor observation dict</text>
  <line x1="56" y1="56.0" x2="516" y2="56.0" stroke="#e5e7eb" /><line x1="56" y1="98.5" x2="516" y2="98.5" stroke="#e5e7eb" /><line x1="56" y1="141.0" x2="516" y2="141.0" stroke="#e5e7eb" /><line x1="56" y1="183.5" x2="516" y2="183.5" stroke="#e5e7eb" /><line x1="56" y1="226.0" x2="516" y2="226.0" stroke="#e5e7eb" />
  <line x1="56" y1="56" x2="56" y2="226" stroke="#94a3b8" stroke-width="1.5" />
  <line x1="56" y1="226" x2="516" y2="226" stroke="#94a3b8" stroke-width="1.5" />
  <text x="18" y="64" font-size="11" fill="#64748b">5.67e+04</text>
  <text x="18" y="226" font-size="11" fill="#64748b">15.7</text>
  <polyline fill="none" stroke="#2563eb" stroke-width="2.5" points="56.0,212.6 76.0,217.1 96.0,214.1 116.0,220.8 136.0,167.4 156.0,220.9 176.0,56.0 196.0,220.8 216.0,205.6 236.0,204.2 256.0,223.0 276.0,221.8 296.0,219.1 316.0,221.4 336.0,214.1 356.0,223.8 376.0,221.3 396.0,207.1 416.0,215.8 436.0,101.9 456.0,210.8 476.0,185.1 496.0,87.4 516.0,223.3" /><polyline fill="none" stroke="#dc2626" stroke-width="2.5" points="56.0,212.6 76.0,218.3 96.0,214.1 116.0,221.8 136.0,183.6 156.0,220.9 176.0,56.0 196.0,220.8 216.0,205.6 236.0,204.2 256.0,223.0 276.0,222.9 296.0,220.8 316.0,221.9 336.0,217.6 356.0,223.9 376.0,221.3 396.0,207.1 416.0,215.8 436.0,101.9 456.0,210.8 476.0,185.1 496.0,87.4 516.0,223.3" /><polyline fill="none" stroke="#059669" stroke-width="2.5" points="56.0,225.9 76.0,225.9 96.0,225.9 116.0,226.0 136.0,225.5 156.0,226.0 176.0,224.0 196.0,226.0 216.0,225.7 236.0,225.7 256.0,226.0 276.0,226.0 296.0,226.0 316.0,226.0 336.0,225.9 356.0,226.0 376.0,226.0 396.0,225.8 416.0,225.9 436.0,224.5 456.0,225.9 476.0,225.5 496.0,224.4 516.0,226.0" /><polyline fill="none" stroke="#d97706" stroke-width="2.5" points="56.0,225.9 76.0,225.9 96.0,225.9 116.0,226.0 136.0,225.5 156.0,226.0 176.0,224.3 196.0,226.0 216.0,225.8 236.0,225.7 256.0,226.0 276.0,226.0 296.0,226.0 316.0,226.0 336.0,225.9 356.0,226.0 376.0,226.0 396.0,225.9 416.0,225.9 436.0,225.0 456.0,225.9 476.0,225.6 496.0,224.7 516.0,226.0" />
  <rect x="548" y="54" width="12" height="12" rx="2" fill="#2563eb" /><text x="568" y="64" font-size="12" fill="#111827">point cloud max: 930</text><rect x="548" y="78" width="12" height="12" rx="2" fill="#dc2626" /><text x="568" y="88" font-size="12" fill="#111827">depth max: 926</text><rect x="548" y="102" width="12" height="12" rx="2" fill="#059669" /><text x="568" y="112" font-size="12" fill="#111827">depth std: 18.4</text><rect x="548" y="126" width="12" height="12" rx="2" fill="#d97706" /><text x="568" y="136" font-size="12" fill="#111827">point cloud std: 15.7</text>
</svg>
