<svg xmlns="http://www.w3.org/2000/svg" width="760" height="280" viewBox="0 0 760 280" role="img" aria-label="Tactile Array example plot">
  <rect width="100%" height="100%" fill="#ffffff" />
  <rect x="14" y="14" width="732" height="252" rx="12" fill="#f8fafc" stroke="#cbd5e1" />
  <text x="28" y="38" font-size="20" font-weight="700" fill="#0f172a">Tactile Array</text>
  <text x="28" y="258" font-size="12" fill="#475569">Generated from 24 Genesis Franka demo timesteps (dt=0.05s) via examples/generate_sensor_doc_assets.py</text>
  <text x="28" y="54" font-size="12" fill="#475569">Representative scalar summaries extracted from the sensor observation dict</text>
  <line x1="56" y1="56.0" x2="516" y2="56.0" stroke="#e5e7eb" /><line x1="56" y1="98.5" x2="516" y2="98.5" stroke="#e5e7eb" /><line x1="56" y1="141.0" x2="516" y2="141.0" stroke="#e5e7eb" /><line x1="56" y1="183.5" x2="516" y2="183.5" stroke="#e5e7eb" /><line x1="56" y1="226.0" x2="516" y2="226.0" stroke="#e5e7eb" />
  <line x1="56" y1="56" x2="56" y2="226" stroke="#94a3b8" stroke-width="1.5" />
  <line x1="56" y1="226" x2="516" y2="226" stroke="#94a3b8" stroke-width="1.5" />
  <text x="18" y="64" font-size="11" fill="#64748b">2.82e+03</text>
  <text x="18" y="226" font-size="11" fill="#64748b">0.0009</text>
  <polyline fill="none" stroke="#2563eb" stroke-width="2.5" points="56.0,69.5 76.0,160.6 96.0,104.6 116.0,99.6 136.0,121.9 156.0,193.7 176.0,165.0 196.0,100.8 216.0,160.6 236.0,93.1 256.0,149.5 276.0,119.1 296.0,86.5 316.0,182.4 336.0,77.3 356.0,152.9 376.0,171.8 396.0,99.5 416.0,56.0 436.0,120.8 456.0,125.5 476.0,106.5 496.0,108.6 516.0,130.2" /><polyline fill="none" stroke="#dc2626" stroke-width="2.5" points="56.0,185.3 76.0,202.3 96.0,194.0 116.0,190.2 136.0,191.0 156.0,216.9 176.0,204.7 196.0,183.5 216.0,204.4 236.0,185.9 256.0,199.0 276.0,192.5 296.0,188.4 316.0,211.2 336.0,179.4 356.0,198.8 376.0,206.0 396.0,191.8 416.0,184.5 436.0,196.4 456.0,191.5 476.0,187.9 496.0,193.4 516.0,197.3" /><polyline fill="none" stroke="#059669" stroke-width="2.5" points="56.0,199.6 76.0,210.5 96.0,204.8 116.0,203.2 136.0,186.6 156.0,222.6 176.0,207.1 196.0,204.7 216.0,211.5 236.0,199.6 256.0,207.8 276.0,203.4 296.0,197.4 316.0,217.0 336.0,193.6 356.0,207.2 376.0,211.7 396.0,206.7 416.0,204.1 436.0,205.3 456.0,196.5 476.0,200.0 496.0,194.7 516.0,198.1" /><polyline fill="none" stroke="#d97706" stroke-width="2.5" points="56.0,226.0 76.0,226.0 96.0,226.0 116.0,226.0 136.0,226.0 156.0,226.0 176.0,226.0 196.0,226.0 216.0,226.0 236.0,226.0 256.0,226.0 276.0,226.0 296.0,226.0 316.0,226.0 336.0,226.0 356.0,226.0 376.0,226.0 396.0,226.0 416.0,226.0 436.0,226.0 456.0,226.0 476.0,226.0 496.0,226.0 516.0,226.0" />
  <rect x="548" y="54" width="12" height="12" rx="2" fill="#2563eb" /><text x="568" y="64" font-size="12" fill="#111827">pressure pa max: 1.59e+03</text><rect x="548" y="78" width="12" height="12" rx="2" fill="#dc2626" /><text x="568" y="88" font-size="12" fill="#111827">pressure pa std: 476</text><rect x="548" y="102" width="12" height="12" rx="2" fill="#059669" /><text x="568" y="112" font-size="12" fill="#111827">pressure pa mean: 464</text><rect x="548" y="126" width="12" height="12" rx="2" fill="#d97706" /><text x="568" y="136" font-size="12" fill="#111827">total force n: 0.00742</text>
</svg>
