<svg xmlns="http://www.w3.org/2000/svg" width="760" height="280" viewBox="0 0 760 280" role="img" aria-label="Tactile Array example plot">
  <rect width="100%" height="100%" fill="#ffffff" />
  <rect x="14" y="14" width="732" height="252" rx="12" fill="#f8fafc" stroke="#cbd5e1" />
  <text x="28" y="38" font-size="20" font-weight="700" fill="#0f172a">Tactile Array</text>
  <text x="28" y="258" font-size="12" fill="#475569">Generated from 24 synthetic timesteps (dt=0.05s) via examples/generate_sensor_doc_assets.py</text>
  <text x="28" y="54" font-size="12" fill="#475569">Representative scalar summaries extracted from the sensor observation dict</text>
  <line x1="56" y1="56.0" x2="516" y2="56.0" stroke="#e5e7eb" /><line x1="56" y1="98.5" x2="516" y2="98.5" stroke="#e5e7eb" /><line x1="56" y1="141.0" x2="516" y2="141.0" stroke="#e5e7eb" /><line x1="56" y1="183.5" x2="516" y2="183.5" stroke="#e5e7eb" /><line x1="56" y1="226.0" x2="516" y2="226.0" stroke="#e5e7eb" />
  <line x1="56" y1="56" x2="56" y2="226" stroke="#94a3b8" stroke-width="1.5" />
  <line x1="56" y1="226" x2="516" y2="226" stroke="#94a3b8" stroke-width="1.5" />
  <text x="18" y="64" font-size="11" fill="#64748b">3.54e+03</text>
  <text x="18" y="226" font-size="11" fill="#64748b">0.00187</text>
  <polyline fill="none" stroke="#2563eb" stroke-width="2.5" points="56.0,140.8 76.0,185.0 96.0,153.8 116.0,185.6 136.0,128.6 156.0,194.5 176.0,173.6 196.0,113.4 216.0,149.9 236.0,122.5 256.0,154.2 276.0,163.4 296.0,130.9 316.0,153.0 336.0,157.6 356.0,172.9 376.0,161.4 396.0,134.9 416.0,149.7 436.0,115.7 456.0,148.4 476.0,163.6 496.0,56.0 516.0,158.6" /><polyline fill="none" stroke="#dc2626" stroke-width="2.5" points="56.0,201.5 76.0,213.0 96.0,205.4 116.0,213.9 136.0,192.4 156.0,214.6 176.0,206.0 196.0,190.9 216.0,203.0 236.0,188.5 256.0,198.9 276.0,206.6 296.0,192.6 316.0,199.1 336.0,206.2 356.0,208.0 376.0,205.7 396.0,197.8 416.0,200.0 436.0,192.6 456.0,201.0 476.0,202.5 496.0,184.0 516.0,205.6" /><polyline fill="none" stroke="#059669" stroke-width="2.5" points="56.0,201.4 76.0,219.3 96.0,212.0 116.0,220.4 136.0,195.9 156.0,214.4 176.0,208.7 196.0,202.9 216.0,212.6 236.0,197.4 256.0,199.6 276.0,215.0 296.0,207.6 316.0,199.9 336.0,207.9 356.0,209.9 376.0,204.0 396.0,196.0 416.0,208.5 436.0,205.8 456.0,204.6 476.0,208.3 496.0,195.8 516.0,206.9" /><polyline fill="none" stroke="#d97706" stroke-width="2.5" points="56.0,226.0 76.0,226.0 96.0,226.0 116.0,226.0 136.0,226.0 156.0,226.0 176.0,226.0 196.0,226.0 216.0,226.0 236.0,226.0 256.0,226.0 276.0,226.0 296.0,226.0 316.0,226.0 336.0,226.0 356.0,226.0 376.0,226.0 396.0,226.0 416.0,226.0 436.0,226.0 456.0,226.0 476.0,226.0 496.0,226.0 516.0,226.0" />
  <rect x="548" y="54" width="12" height="12" rx="2" fill="#2563eb" /><text x="568" y="64" font-size="12" fill="#111827">pressure pa max: 1.4e+03</text><rect x="548" y="78" width="12" height="12" rx="2" fill="#dc2626" /><text x="568" y="88" font-size="12" fill="#111827">pressure pa std: 426</text><rect x="548" y="102" width="12" height="12" rx="2" fill="#059669" /><text x="568" y="112" font-size="12" fill="#111827">pressure pa mean: 399</text><rect x="548" y="126" width="12" height="12" rx="2" fill="#d97706" /><text x="568" y="136" font-size="12" fill="#111827">total force n: 0.00638</text>
</svg>
