<svg xmlns="http://www.w3.org/2000/svg" width="760" height="280" viewBox="0 0 760 280" role="img" aria-label="Thermal Camera example plot">
  <rect width="100%" height="100%" fill="#ffffff" />
  <rect x="14" y="14" width="732" height="252" rx="12" fill="#f8fafc" stroke="#cbd5e1" />
  <text x="28" y="38" font-size="20" font-weight="700" fill="#0f172a">Thermal Camera</text>
  <text x="28" y="258" font-size="12" fill="#475569">Generated from 24 synthetic timesteps (dt=0.05s) via examples/generate_sensor_doc_assets.py</text>
  <text x="28" y="54" font-size="12" fill="#475569">Representative scalar summaries extracted from the sensor observation dict</text>
  <line x1="56" y1="56.0" x2="516" y2="56.0" stroke="#e5e7eb" /><line x1="56" y1="98.5" x2="516" y2="98.5" stroke="#e5e7eb" /><line x1="56" y1="141.0" x2="516" y2="141.0" stroke="#e5e7eb" /><line x1="56" y1="183.5" x2="516" y2="183.5" stroke="#e5e7eb" /><line x1="56" y1="226.0" x2="516" y2="226.0" stroke="#e5e7eb" />
  <line x1="56" y1="56" x2="56" y2="226" stroke="#94a3b8" stroke-width="1.5" />
  <line x1="56" y1="226" x2="516" y2="226" stroke="#94a3b8" stroke-width="1.5" />
  <text x="18" y="64" font-size="11" fill="#64748b">2.8e+03</text>
  <text x="18" y="226" font-size="11" fill="#64748b">48.6</text>
  <polyline fill="none" stroke="#2563eb" stroke-width="2.5" points="56.0,56.0 76.0,56.1 96.0,56.4 116.0,57.4 136.0,59.0 156.0,60.8 176.0,63.0 196.0,65.6 216.0,68.0 236.0,70.6 256.0,73.1 276.0,75.2 296.0,77.1 316.0,78.8 336.0,80.1 356.0,80.8 376.0,81.4 396.0,81.1 416.0,80.7 436.0,80.0 456.0,78.5 476.0,76.7 496.0,74.4 516.0,71.8" /><polyline fill="none" stroke="#dc2626" stroke-width="2.5" points="56.0,201.1 76.0,201.1 96.0,201.2 116.0,201.2 136.0,201.3 156.0,201.4 176.0,201.6 196.0,201.7 216.0,201.8 236.0,202.0 256.0,202.1 276.0,202.2 296.0,202.3 316.0,202.4 336.0,202.5 356.0,202.5 376.0,202.5 396.0,202.5 416.0,202.5 436.0,202.4 456.0,202.4 476.0,202.3 496.0,202.2 516.0,202.1" /><polyline fill="none" stroke="#059669" stroke-width="2.5" points="56.0,225.3 76.0,225.3 96.0,225.3 116.0,225.3 136.0,225.4 156.0,225.4 176.0,225.5 196.0,225.5 216.0,225.6 236.0,225.7 256.0,225.8 276.0,225.8 296.0,225.9 316.0,225.9 336.0,226.0 356.0,226.0 376.0,226.0 396.0,226.0 416.0,226.0 436.0,226.0 456.0,225.9 476.0,225.9 496.0,225.8 516.0,225.7" /><polyline fill="none" stroke="#d97706" stroke-width="2.5" points="56.0,147.9 76.0,147.9 96.0,147.9 116.0,147.9 136.0,148.0 156.0,148.0 176.0,148.1 196.0,148.1 216.0,148.2 236.0,148.3 256.0,148.3 276.0,148.4 296.0,148.4 316.0,148.5 336.0,148.5 356.0,148.6 376.0,148.6 396.0,148.6 416.0,148.6 436.0,148.6 456.0,148.5 476.0,148.5 496.0,148.5 516.0,148.5" />
  <rect x="548" y="54" width="12" height="12" rx="2" fill="#2563eb" /><text x="568" y="64" font-size="12" fill="#111827">thermal max: 2.54e+03</text><rect x="548" y="78" width="12" height="12" rx="2" fill="#dc2626" /><text x="568" y="88" font-size="12" fill="#111827">thermal std: 436</text><rect x="548" y="102" width="12" height="12" rx="2" fill="#059669" /><text x="568" y="112" font-size="12" fill="#111827">temperature c max: 53</text><rect x="548" y="126" width="12" height="12" rx="2" fill="#d97706" /><text x="568" y="136" font-size="12" fill="#111827">thermal mean: 1.3e+03</text>
</svg>
