<svg xmlns="http://www.w3.org/2000/svg" width="760" height="280" viewBox="0 0 760 280" role="img" aria-label="Thermometer example plot">
  <rect width="100%" height="100%" fill="#ffffff" />
  <rect x="14" y="14" width="732" height="252" rx="12" fill="#f8fafc" stroke="#cbd5e1" />
  <text x="28" y="38" font-size="20" font-weight="700" fill="#0f172a">Thermometer</text>
  <text x="28" y="258" font-size="12" fill="#475569">Generated from 24 synthetic timesteps (dt=0.05s) via examples/generate_sensor_doc_assets.py</text>
  <text x="28" y="54" font-size="12" fill="#475569">Representative scalar summaries extracted from the sensor observation dict</text>
  <line x1="56" y1="56.0" x2="516" y2="56.0" stroke="#e5e7eb" /><line x1="56" y1="98.5" x2="516" y2="98.5" stroke="#e5e7eb" /><line x1="56" y1="141.0" x2="516" y2="141.0" stroke="#e5e7eb" /><line x1="56" y1="183.5" x2="516" y2="183.5" stroke="#e5e7eb" /><line x1="56" y1="226.0" x2="516" y2="226.0" stroke="#e5e7eb" />
  <line x1="56" y1="56" x2="56" y2="226" stroke="#94a3b8" stroke-width="1.5" />
  <line x1="56" y1="226" x2="516" y2="226" stroke="#94a3b8" stroke-width="1.5" />
  <text x="18" y="64" font-size="11" fill="#64748b">73.6</text>
  <text x="18" y="226" font-size="11" fill="#64748b">20.9</text>
  <polyline fill="none" stroke="#2563eb" stroke-width="2.5" points="56.0,68.9 76.0,67.8 96.0,65.7 116.0,63.7 136.0,62.3 156.0,61.6 176.0,59.5 196.0,59.5 216.0,57.7 236.0,56.5 256.0,57.0 276.0,56.2 296.0,56.3 316.0,56.0 336.0,56.6 356.0,56.8 376.0,56.9 396.0,57.5 416.0,57.9 436.0,58.3 456.0,59.5 476.0,61.1 496.0,61.7 516.0,63.3" /><polyline fill="none" stroke="#dc2626" stroke-width="2.5" points="56.0,226.0 76.0,225.4 96.0,224.3 116.0,223.1 136.0,222.3 156.0,222.0 176.0,220.8 196.0,220.8 216.0,219.8 236.0,219.1 256.0,219.4 276.0,218.9 296.0,219.0 316.0,218.9 336.0,219.2 356.0,219.3 376.0,219.3 396.0,219.7 416.0,219.9 436.0,220.1 456.0,220.8 476.0,221.7 496.0,222.0 516.0,222.9" />
  <rect x="548" y="54" width="12" height="12" rx="2" fill="#2563eb" /><text x="568" y="64" font-size="12" fill="#111827">temperature f: 71.4</text><rect x="548" y="78" width="12" height="12" rx="2" fill="#dc2626" /><text x="568" y="88" font-size="12" fill="#111827">temperature c: 21.9</text>
</svg>
