<svg xmlns="http://www.w3.org/2000/svg" width="760" height="280" viewBox="0 0 760 280" role="img" aria-label="Ultrasonic Array example plot">
  <rect width="100%" height="100%" fill="#ffffff" />
  <rect x="14" y="14" width="732" height="252" rx="12" fill="#f8fafc" stroke="#cbd5e1" />
  <text x="28" y="38" font-size="20" font-weight="700" fill="#0f172a">Ultrasonic Array</text>
  <text x="28" y="258" font-size="12" fill="#475569">Generated from 24 Genesis perception demo timesteps (dt=0.05s) via examples/generate_sensor_doc_assets.py</text>
  <text x="28" y="54" font-size="12" fill="#475569">Representative scalar summaries extracted from the sensor observation dict</text>
  <line x1="56" y1="56.0" x2="516" y2="56.0" stroke="#e5e7eb" /><line x1="56" y1="98.5" x2="516" y2="98.5" stroke="#e5e7eb" /><line x1="56" y1="141.0" x2="516" y2="141.0" stroke="#e5e7eb" /><line x1="56" y1="183.5" x2="516" y2="183.5" stroke="#e5e7eb" /><line x1="56" y1="226.0" x2="516" y2="226.0" stroke="#e5e7eb" />
  <line x1="56" y1="56" x2="56" y2="226" stroke="#94a3b8" stroke-width="1.5" />
  <line x1="56" y1="226" x2="516" y2="226" stroke="#94a3b8" stroke-width="1.5" />
  <text x="18" y="64" font-size="11" fill="#64748b">1.41</text>
  <text x="18" y="226" font-size="11" fill="#64748b">0.245</text>
  <polyline fill="none" stroke="#2563eb" stroke-width="2.5" points="56.0,109.7 76.0,109.7 96.0,111.4 116.0,111.4 136.0,142.9 156.0,142.9 176.0,109.0 196.0,109.0 216.0,109.0 236.0,109.0 256.0,109.3 276.0,109.3 296.0,107.4 316.0,107.4 336.0,111.5 356.0,111.5 376.0,110.0 396.0,110.0 416.0,106.7 436.0,106.7 456.0,151.7 476.0,151.7 496.0,108.8 516.0,108.8" /><polyline fill="none" stroke="#dc2626" stroke-width="2.5" points="56.0,222.6 76.0,222.6 96.0,224.1 116.0,224.1 136.0,185.4 156.0,185.4 176.0,224.4 196.0,224.4 216.0,224.2 236.0,224.2 256.0,224.7 276.0,224.7 296.0,221.3 316.0,221.3 336.0,221.8 356.0,221.8 376.0,226.0 396.0,226.0 416.0,223.9 436.0,223.9 456.0,188.5 476.0,188.5 496.0,223.7 516.0,223.7" /><polyline fill="none" stroke="#059669" stroke-width="2.5" points="56.0,62.4 76.0,62.4 96.0,67.5 116.0,67.5 136.0,70.3 156.0,70.3 176.0,62.3 196.0,62.3 216.0,64.9 236.0,64.9 256.0,64.1 276.0,64.1 296.0,56.0 316.0,56.0 336.0,60.9 356.0,60.9 376.0,65.9 396.0,65.9 416.0,60.8 436.0,60.8 456.0,57.5 476.0,57.5 496.0,59.0 516.0,59.0" /><polyline fill="none" stroke="#d97706" stroke-width="2.5" points="56.0,153.0 76.0,153.0 96.0,155.2 116.0,155.2 136.0,157.5 156.0,157.5 176.0,151.9 196.0,151.9 216.0,152.5 236.0,152.5 256.0,153.6 276.0,153.6 296.0,157.6 316.0,157.6 336.0,158.2 356.0,158.2 376.0,154.4 396.0,154.4 416.0,155.2 436.0,155.2 456.0,157.2 476.0,157.2 496.0,157.8 516.0,157.8" />
  <rect x="548" y="54" width="12" height="12" rx="2" fill="#2563eb" /><text x="568" y="64" font-size="12" fill="#111827">ranges m mean: 1.05</text><rect x="548" y="78" width="12" height="12" rx="2" fill="#dc2626" /><text x="568" y="88" font-size="12" fill="#111827">ranges m std: 0.261</text><rect x="548" y="102" width="12" height="12" rx="2" fill="#059669" /><text x="568" y="112" font-size="12" fill="#111827">ranges m max: 1.39</text><rect x="548" y="126" width="12" height="12" rx="2" fill="#d97706" /><text x="568" y="136" font-size="12" fill="#111827">nearest range m: 0.712</text>
</svg>
