<svg xmlns="http://www.w3.org/2000/svg" width="760" height="280" viewBox="0 0 760 280" role="img" aria-label="Ultrasonic Array example plot">
  <rect width="100%" height="100%" fill="#ffffff" />
  <rect x="14" y="14" width="732" height="252" rx="12" fill="#f8fafc" stroke="#cbd5e1" />
  <text x="28" y="38" font-size="20" font-weight="700" fill="#0f172a">Ultrasonic Array</text>
  <text x="28" y="258" font-size="12" fill="#475569">Generated from 24 synthetic timesteps (dt=0.05s) via examples/generate_sensor_doc_assets.py</text>
  <text x="28" y="54" font-size="12" fill="#475569">Representative scalar summaries extracted from the sensor observation dict</text>
  <line x1="56" y1="56.0" x2="516" y2="56.0" stroke="#e5e7eb" /><line x1="56" y1="98.5" x2="516" y2="98.5" stroke="#e5e7eb" /><line x1="56" y1="141.0" x2="516" y2="141.0" stroke="#e5e7eb" /><line x1="56" y1="183.5" x2="516" y2="183.5" stroke="#e5e7eb" /><line x1="56" y1="226.0" x2="516" y2="226.0" stroke="#e5e7eb" />
  <line x1="56" y1="56" x2="56" y2="226" stroke="#94a3b8" stroke-width="1.5" />
  <line x1="56" y1="226" x2="516" y2="226" stroke="#94a3b8" stroke-width="1.5" />
  <text x="18" y="64" font-size="11" fill="#64748b">1.59</text>
  <text x="18" y="226" font-size="11" fill="#64748b">0.279</text>
  <polyline fill="none" stroke="#2563eb" stroke-width="2.5" points="56.0,119.9 76.0,117.4 96.0,117.5 116.0,118.9 136.0,114.5 156.0,115.9 176.0,114.6 196.0,117.3 216.0,116.5 236.0,144.8 256.0,116.4 276.0,121.7 296.0,122.1 316.0,119.6 336.0,172.6 356.0,120.6 376.0,152.5 396.0,115.8 416.0,114.8 436.0,114.3 456.0,155.6 476.0,120.9 496.0,162.6 516.0,120.8" /><polyline fill="none" stroke="#dc2626" stroke-width="2.5" points="56.0,225.0 76.0,225.6 96.0,224.4 116.0,224.5 136.0,222.4 156.0,223.2 176.0,224.6 196.0,222.1 216.0,225.1 236.0,186.3 256.0,226.0 276.0,214.4 296.0,215.0 316.0,213.4 336.0,201.6 356.0,215.5 376.0,184.1 396.0,222.7 416.0,221.9 436.0,221.6 456.0,191.1 476.0,218.1 496.0,190.9 516.0,219.9" /><polyline fill="none" stroke="#059669" stroke-width="2.5" points="56.0,155.5 76.0,152.8 96.0,157.9 116.0,159.9 136.0,156.5 156.0,159.7 176.0,156.0 196.0,161.4 216.0,157.8 236.0,156.7 256.0,159.6 276.0,188.9 296.0,186.9 316.0,188.4 336.0,186.2 356.0,184.7 376.0,187.9 396.0,163.9 416.0,163.6 436.0,159.6 456.0,157.6 476.0,163.1 496.0,164.8 516.0,162.6" /><polyline fill="none" stroke="#d97706" stroke-width="2.5" points="56.0,66.1 76.0,67.0 96.0,65.6 116.0,66.5 136.0,60.5 156.0,60.7 176.0,63.2 196.0,63.7 216.0,65.9 236.0,61.1 256.0,68.0 276.0,61.4 296.0,62.3 316.0,59.7 336.0,97.2 356.0,62.6 376.0,63.0 396.0,60.9 416.0,57.2 436.0,56.0 456.0,62.7 476.0,59.1 496.0,60.6 516.0,59.8" />
  <rect x="548" y="54" width="12" height="12" rx="2" fill="#2563eb" /><text x="568" y="64" font-size="12" fill="#111827">ranges m mean: 1.09</text><rect x="548" y="78" width="12" height="12" rx="2" fill="#dc2626" /><text x="568" y="88" font-size="12" fill="#111827">ranges m std: 0.326</text><rect x="548" y="102" width="12" height="12" rx="2" fill="#059669" /><text x="568" y="112" font-size="12" fill="#111827">nearest range m: 0.766</text><rect x="548" y="126" width="12" height="12" rx="2" fill="#d97706" /><text x="568" y="136" font-size="12" fill="#111827">ranges m max: 1.56</text>
</svg>
