<svg xmlns="http://www.w3.org/2000/svg" width="760" height="280" viewBox="0 0 760 280" role="img" aria-label="Underwater Modem example plot">
  <rect width="100%" height="100%" fill="#ffffff" />
  <rect x="14" y="14" width="732" height="252" rx="12" fill="#f8fafc" stroke="#cbd5e1" />
  <text x="28" y="38" font-size="20" font-weight="700" fill="#0f172a">Underwater Modem</text>
  <text x="28" y="258" font-size="12" fill="#475569">Generated from 24 Genesis perception demo timesteps (dt=0.05s) via examples/generate_sensor_doc_assets.py</text>
  <text x="28" y="54" font-size="12" fill="#475569">Representative scalar summaries extracted from the sensor observation dict</text>
  <line x1="56" y1="56.0" x2="516" y2="56.0" stroke="#e5e7eb" /><line x1="56" y1="98.5" x2="516" y2="98.5" stroke="#e5e7eb" /><line x1="56" y1="141.0" x2="516" y2="141.0" stroke="#e5e7eb" /><line x1="56" y1="183.5" x2="516" y2="183.5" stroke="#e5e7eb" /><line x1="56" y1="226.0" x2="516" y2="226.0" stroke="#e5e7eb" />
  <line x1="56" y1="56" x2="56" y2="226" stroke="#94a3b8" stroke-width="1.5" />
  <line x1="56" y1="226" x2="516" y2="226" stroke="#94a3b8" stroke-width="1.5" />
  <text x="18" y="64" font-size="11" fill="#64748b">90.7</text>
  <text x="18" y="226" font-size="11" fill="#64748b">-0.000687</text>
  <polyline fill="none" stroke="#2563eb" stroke-width="2.5" points="56.0,226.0 76.0,226.0 96.0,226.0 116.0,226.0 136.0,226.0 156.0,226.0 176.0,226.0 196.0,226.0 216.0,226.0 236.0,226.0 256.0,218.5 276.0,218.5 296.0,218.5 316.0,218.5 336.0,218.5 356.0,218.5 376.0,218.5 396.0,218.5 416.0,218.5 436.0,218.5 456.0,199.3 476.0,199.3 496.0,199.3 516.0,199.3" /><polyline fill="none" stroke="#dc2626" stroke-width="2.5" points="56.0,56.3 76.0,56.3 96.0,56.3 116.0,56.3 136.0,56.3 156.0,56.3 176.0,56.3 196.0,56.3 216.0,56.3 236.0,56.3 256.0,60.7 276.0,60.7 296.0,60.7 316.0,60.7 336.0,60.7 356.0,60.7 376.0,60.7 396.0,60.7 416.0,60.7 436.0,60.7 456.0,56.0 476.0,56.0 496.0,56.0 516.0,56.0" /><polyline fill="none" stroke="#059669" stroke-width="2.5" points="56.0,182.5 76.0,182.5 96.0,182.5 116.0,182.5 136.0,182.5 156.0,182.5 176.0,182.5 196.0,182.5 216.0,182.5 236.0,182.5 256.0,182.4 276.0,182.4 296.0,182.4 316.0,182.4 336.0,182.4 356.0,182.4 376.0,182.4 396.0,182.4 416.0,182.4 436.0,182.4 456.0,182.5 476.0,182.5 496.0,182.5 516.0,182.5" /><polyline fill="none" stroke="#d97706" stroke-width="2.5" points="56.0,226.0 76.0,226.0 96.0,226.0 116.0,226.0 136.0,226.0 156.0,226.0 176.0,226.0 196.0,226.0 216.0,226.0 236.0,226.0 256.0,226.0 276.0,226.0 296.0,226.0 316.0,226.0 336.0,226.0 356.0,226.0 376.0,226.0 396.0,226.0 416.0,226.0 436.0,226.0 456.0,226.0 476.0,226.0 496.0,226.0 516.0,226.0" />
  <rect x="548" y="54" width="12" height="12" rx="2" fill="#2563eb" /><text x="568" y="64" font-size="12" fill="#111827">doppler shift hz: 14.2</text><rect x="548" y="78" width="12" height="12" rx="2" fill="#dc2626" /><text x="568" y="88" font-size="12" fill="#111827">snr db: 90.7</text><rect x="548" y="102" width="12" height="12" rx="2" fill="#059669" /><text x="568" y="112" font-size="12" fill="#111827">range m: 23.2</text><rect x="548" y="126" width="12" height="12" rx="2" fill="#d97706" /><text x="568" y="136" font-size="12" fill="#111827">latency s: 0.0155</text>
</svg>
