<svg xmlns="http://www.w3.org/2000/svg" width="760" height="280" viewBox="0 0 760 280" role="img" aria-label="UWB Ranging example plot">
  <rect width="100%" height="100%" fill="#ffffff" />
  <rect x="14" y="14" width="732" height="252" rx="12" fill="#f8fafc" stroke="#cbd5e1" />
  <text x="28" y="38" font-size="20" font-weight="700" fill="#0f172a">UWB Ranging</text>
  <text x="28" y="258" font-size="12" fill="#475569">Generated from 24 synthetic timesteps (dt=0.05s) via examples/generate_sensor_doc_assets.py</text>
  <text x="28" y="54" font-size="12" fill="#475569">Representative scalar summaries extracted from the sensor observation dict</text>
  <line x1="56" y1="56.0" x2="516" y2="56.0" stroke="#e5e7eb" /><line x1="56" y1="98.5" x2="516" y2="98.5" stroke="#e5e7eb" /><line x1="56" y1="141.0" x2="516" y2="141.0" stroke="#e5e7eb" /><line x1="56" y1="183.5" x2="516" y2="183.5" stroke="#e5e7eb" /><line x1="56" y1="226.0" x2="516" y2="226.0" stroke="#e5e7eb" />
  <line x1="56" y1="56" x2="56" y2="226" stroke="#94a3b8" stroke-width="1.5" />
  <line x1="56" y1="226" x2="516" y2="226" stroke="#94a3b8" stroke-width="1.5" />
  <text x="18" y="64" font-size="11" fill="#64748b">12.5</text>
  <text x="18" y="226" font-size="11" fill="#64748b">-62.3</text>
  <polyline fill="none" stroke="#2563eb" stroke-width="2.5" points="56.0,215.9 76.0,216.4 96.0,216.8 116.0,217.3 136.0,217.8 156.0,218.3 176.0,218.8 196.0,219.2 216.0,219.7 236.0,220.2 256.0,220.6 276.0,221.1 296.0,221.5 316.0,221.9 336.0,222.4 356.0,222.8 376.0,223.2 396.0,223.6 416.0,224.0 436.0,224.4 456.0,224.8 476.0,225.2 496.0,225.6 516.0,226.0" /><polyline fill="none" stroke="#dc2626" stroke-width="2.5" points="56.0,75.4 76.0,75.6 96.0,75.6 116.0,75.8 136.0,75.9 156.0,76.0 176.0,76.1 196.0,76.2 216.0,76.3 236.0,76.4 256.0,76.5 276.0,76.6 296.0,76.7 316.0,76.5 336.0,76.9 356.0,77.0 376.0,77.1 396.0,77.2 416.0,77.3 436.0,77.3 456.0,77.4 476.0,77.5 496.0,77.6 516.0,77.7" /><polyline fill="none" stroke="#059669" stroke-width="2.5" points="56.0,67.5 76.0,67.4 96.0,67.4 116.0,67.4 136.0,67.3 156.0,67.4 176.0,67.3 196.0,67.3 216.0,67.3 236.0,67.3 256.0,67.2 276.0,67.2 296.0,67.1 316.0,65.2 336.0,67.1 356.0,67.0 376.0,67.0 396.0,67.0 416.0,66.9 436.0,66.9 456.0,66.8 476.0,66.8 496.0,66.7 516.0,66.7" /><polyline fill="none" stroke="#d97706" stroke-width="2.5" points="56.0,56.3 76.0,56.3 96.0,56.3 116.0,56.3 136.0,56.3 156.0,56.4 176.0,56.4 196.0,56.3 216.0,56.3 236.0,56.3 256.0,56.3 276.0,56.3 296.0,56.2 316.0,56.1 336.0,56.2 356.0,56.2 376.0,56.1 396.0,56.2 416.0,56.1 436.0,56.1 456.0,56.1 476.0,56.0 496.0,56.0 516.0,56.0" />
  <rect x="548" y="54" width="12" height="12" rx="2" fill="#2563eb" /><text x="568" y="64" font-size="12" fill="#111827">rssi dbm max: -62.3</text><rect x="548" y="78" width="12" height="12" rx="2" fill="#dc2626" /><text x="568" y="88" font-size="12" fill="#111827">ranges m std: 2.94</text><rect x="548" y="102" width="12" height="12" rx="2" fill="#059669" /><text x="568" y="112" font-size="12" fill="#111827">ranges m mean: 7.79</text><rect x="548" y="126" width="12" height="12" rx="2" fill="#d97706" /><text x="568" y="136" font-size="12" fill="#111827">ranges m max: 12.5</text>
</svg>
