<svg xmlns="http://www.w3.org/2000/svg" width="760" height="280" viewBox="0 0 760 280" role="img" aria-label="UWB Ranging example plot">
  <rect width="100%" height="100%" fill="#ffffff" />
  <rect x="14" y="14" width="732" height="252" rx="12" fill="#f8fafc" stroke="#cbd5e1" />
  <text x="28" y="38" font-size="20" font-weight="700" fill="#0f172a">UWB Ranging</text>
  <text x="28" y="258" font-size="12" fill="#475569">Generated from 24 Genesis perception demo timesteps (dt=0.05s) via examples/generate_sensor_doc_assets.py</text>
  <text x="28" y="54" font-size="12" fill="#475569">Representative scalar summaries extracted from the sensor observation dict</text>
  <line x1="56" y1="56.0" x2="516" y2="56.0" stroke="#e5e7eb" /><line x1="56" y1="98.5" x2="516" y2="98.5" stroke="#e5e7eb" /><line x1="56" y1="141.0" x2="516" y2="141.0" stroke="#e5e7eb" /><line x1="56" y1="183.5" x2="516" y2="183.5" stroke="#e5e7eb" /><line x1="56" y1="226.0" x2="516" y2="226.0" stroke="#e5e7eb" />
  <line x1="56" y1="56" x2="56" y2="226" stroke="#94a3b8" stroke-width="1.5" />
  <line x1="56" y1="226" x2="516" y2="226" stroke="#94a3b8" stroke-width="1.5" />
  <text x="18" y="64" font-size="11" fill="#64748b">12.7</text>
  <text x="18" y="226" font-size="11" fill="#64748b">4</text>
  <polyline fill="none" stroke="#2563eb" stroke-width="2.5" points="56.0,67.4 76.0,68.9 96.0,68.8 116.0,68.8 136.0,68.6 156.0,68.1 176.0,68.4 196.0,67.7 216.0,68.6 236.0,67.8 256.0,68.1 276.0,68.1 296.0,67.4 316.0,65.8 336.0,66.4 356.0,65.3 376.0,64.6 396.0,63.8 416.0,61.2 436.0,60.9 456.0,59.5 476.0,58.3 496.0,57.1 516.0,56.0" /><polyline fill="none" stroke="#dc2626" stroke-width="2.5" points="56.0,157.2 76.0,157.6 96.0,157.5 116.0,157.5 136.0,157.3 156.0,157.0 176.0,157.4 196.0,156.8 216.0,156.7 236.0,157.3 256.0,157.1 276.0,157.3 296.0,157.3 316.0,156.2 336.0,156.8 356.0,157.1 376.0,156.3 396.0,156.1 416.0,155.4 436.0,154.7 456.0,154.0 476.0,153.2 496.0,152.6 516.0,151.7" /><polyline fill="none" stroke="#059669" stroke-width="2.5" points="56.0,210.1 76.0,210.4 96.0,210.6 116.0,210.9 136.0,210.6 156.0,210.5 176.0,210.5 196.0,210.0 216.0,211.3 236.0,210.2 256.0,210.1 276.0,210.5 296.0,210.2 316.0,210.2 336.0,210.1 356.0,210.5 376.0,210.2 396.0,210.0 416.0,209.4 436.0,209.2 456.0,209.3 476.0,208.6 496.0,208.7 516.0,208.2" /><polyline fill="none" stroke="#d97706" stroke-width="2.5" points="56.0,226.0 76.0,226.0 96.0,226.0 116.0,226.0 136.0,226.0 156.0,226.0 176.0,226.0 196.0,226.0 216.0,226.0 236.0,226.0 256.0,226.0 276.0,226.0 296.0,226.0 316.0,226.0 336.0,226.0 356.0,226.0 376.0,226.0 396.0,226.0 416.0,226.0 436.0,226.0 456.0,226.0 476.0,226.0 496.0,226.0 516.0,226.0" />
  <rect x="548" y="54" width="12" height="12" rx="2" fill="#2563eb" /><text x="568" y="64" font-size="12" fill="#111827">ranges m max: 12.7</text><rect x="548" y="78" width="12" height="12" rx="2" fill="#dc2626" /><text x="568" y="88" font-size="12" fill="#111827">ranges m mean: 7.79</text><rect x="548" y="102" width="12" height="12" rx="2" fill="#059669" /><text x="568" y="112" font-size="12" fill="#111827">ranges m std: 4.91</text><rect x="548" y="126" width="12" height="12" rx="2" fill="#d97706" /><text x="568" y="136" font-size="12" fill="#111827">anchor ids count: 4</text>
</svg>
