<svg xmlns="http://www.w3.org/2000/svg" width="760" height="280" viewBox="0 0 760 280" role="img" aria-label="Water Pressure example plot">
  <rect width="100%" height="100%" fill="#ffffff" />
  <rect x="14" y="14" width="732" height="252" rx="12" fill="#f8fafc" stroke="#cbd5e1" />
  <text x="28" y="38" font-size="20" font-weight="700" fill="#0f172a">Water Pressure</text>
  <text x="28" y="258" font-size="12" fill="#475569">Generated from 24 Genesis perception demo timesteps (dt=0.05s) via examples/generate_sensor_doc_assets.py</text>
  <text x="28" y="54" font-size="12" fill="#475569">Representative scalar summaries extracted from the sensor observation dict</text>
  <line x1="56" y1="56.0" x2="516" y2="56.0" stroke="#e5e7eb" /><line x1="56" y1="98.5" x2="516" y2="98.5" stroke="#e5e7eb" /><line x1="56" y1="141.0" x2="516" y2="141.0" stroke="#e5e7eb" /><line x1="56" y1="183.5" x2="516" y2="183.5" stroke="#e5e7eb" /><line x1="56" y1="226.0" x2="516" y2="226.0" stroke="#e5e7eb" />
  <line x1="56" y1="56" x2="56" y2="226" stroke="#94a3b8" stroke-width="1.5" />
  <line x1="56" y1="226" x2="516" y2="226" stroke="#94a3b8" stroke-width="1.5" />
  <text x="18" y="64" font-size="11" fill="#64748b">1.31e+05</text>
  <text x="18" y="226" font-size="11" fill="#64748b">1.96</text>
  <polyline fill="none" stroke="#2563eb" stroke-width="2.5" points="56.0,63.3 76.0,63.3 96.0,61.0 116.0,61.0 136.0,58.4 156.0,58.4 176.0,56.0 196.0,56.0 216.0,56.5 236.0,56.5 256.0,57.5 276.0,57.5 296.0,56.7 316.0,56.7 336.0,58.5 356.0,58.5 376.0,61.5 396.0,61.5 416.0,65.5 436.0,65.5 456.0,67.3 476.0,67.3 496.0,69.4 516.0,69.4" /><polyline fill="none" stroke="#dc2626" stroke-width="2.5" points="56.0,226.0 76.0,226.0 96.0,226.0 116.0,226.0 136.0,226.0 156.0,226.0 176.0,226.0 196.0,226.0 216.0,226.0 236.0,226.0 256.0,226.0 276.0,226.0 296.0,226.0 316.0,226.0 336.0,226.0 356.0,226.0 376.0,226.0 396.0,226.0 416.0,226.0 436.0,226.0 456.0,226.0 476.0,226.0 496.0,226.0 516.0,226.0" /><polyline fill="none" stroke="#059669" stroke-width="2.5" points="56.0,226.0 76.0,226.0 96.0,226.0 116.0,226.0 136.0,226.0 156.0,226.0 176.0,226.0 196.0,226.0 216.0,226.0 236.0,226.0 256.0,226.0 276.0,226.0 296.0,226.0 316.0,226.0 336.0,226.0 356.0,226.0 376.0,226.0 396.0,226.0 416.0,226.0 436.0,226.0 456.0,226.0 476.0,226.0 496.0,226.0 516.0,226.0" /><polyline fill="none" stroke="#d97706" stroke-width="2.5" points="56.0,224.7 76.0,224.7 96.0,224.7 116.0,224.7 136.0,224.7 156.0,224.7 176.0,224.7 196.0,224.7 216.0,224.7 236.0,224.7 256.0,224.7 276.0,224.7 296.0,224.7 316.0,224.7 336.0,224.7 356.0,224.7 376.0,224.7 396.0,224.7 416.0,224.7 436.0,224.7 456.0,224.7 476.0,224.7 496.0,224.7 516.0,224.7" />
  <rect x="548" y="54" width="12" height="12" rx="2" fill="#2563eb" /><text x="568" y="64" font-size="12" fill="#111827">pressure pa: 1.21e+05</text><rect x="548" y="78" width="12" height="12" rx="2" fill="#dc2626" /><text x="568" y="88" font-size="12" fill="#111827">temperature c: 10.9</text><rect x="548" y="102" width="12" height="12" rx="2" fill="#059669" /><text x="568" y="112" font-size="12" fill="#111827">depth m: 1.96</text><rect x="548" y="126" width="12" height="12" rx="2" fill="#d97706" /><text x="568" y="136" font-size="12" fill="#111827">water density kg m3: 1.03e+03</text>
</svg>
