<svg xmlns="http://www.w3.org/2000/svg" width="760" height="280" viewBox="0 0 760 280" role="img" aria-label="Wheel Odometry example plot">
  <rect width="100%" height="100%" fill="#ffffff" />
  <rect x="14" y="14" width="732" height="252" rx="12" fill="#f8fafc" stroke="#cbd5e1" />
  <text x="28" y="38" font-size="20" font-weight="700" fill="#0f172a">Wheel Odometry</text>
  <text x="28" y="258" font-size="12" fill="#475569">Generated from 24 synthetic timesteps (dt=0.05s) via examples/generate_sensor_doc_assets.py</text>
  <text x="28" y="54" font-size="12" fill="#475569">Representative scalar summaries extracted from the sensor observation dict</text>
  <line x1="56" y1="56.0" x2="516" y2="56.0" stroke="#e5e7eb" /><line x1="56" y1="98.5" x2="516" y2="98.5" stroke="#e5e7eb" /><line x1="56" y1="141.0" x2="516" y2="141.0" stroke="#e5e7eb" /><line x1="56" y1="183.5" x2="516" y2="183.5" stroke="#e5e7eb" /><line x1="56" y1="226.0" x2="516" y2="226.0" stroke="#e5e7eb" />
  <line x1="56" y1="56" x2="56" y2="226" stroke="#94a3b8" stroke-width="1.5" />
  <line x1="56" y1="226" x2="516" y2="226" stroke="#94a3b8" stroke-width="1.5" />
  <text x="18" y="64" font-size="11" fill="#64748b">0.415</text>
  <text x="18" y="226" font-size="11" fill="#64748b">-0.0029</text>
  <polyline fill="none" stroke="#2563eb" stroke-width="2.5" points="56.0,90.3 76.0,99.7 96.0,122.7 116.0,82.8 136.0,143.4 156.0,102.9 176.0,88.8 196.0,110.2 216.0,102.9 236.0,140.7 256.0,141.5 276.0,105.0 296.0,136.3 316.0,122.0 336.0,129.4 356.0,85.1 376.0,136.1 396.0,107.0 416.0,129.2 436.0,102.0 456.0,156.0 476.0,127.1 496.0,85.8 516.0,124.6" /><polyline fill="none" stroke="#dc2626" stroke-width="2.5" points="56.0,56.2 76.0,56.0 96.0,57.1 116.0,56.4 136.0,58.5 156.0,59.5 176.0,58.3 196.0,59.5 216.0,60.4 236.0,58.9 256.0,60.4 276.0,63.1 296.0,62.0 316.0,63.2 336.0,65.7 356.0,65.6 376.0,68.4 396.0,68.3 416.0,69.3 436.0,72.4 456.0,72.4 476.0,75.6 496.0,76.5 516.0,78.0" /><polyline fill="none" stroke="#059669" stroke-width="2.5" points="56.0,222.6 76.0,223.5 96.0,224.9 116.0,222.9 136.0,224.7 156.0,223.7 176.0,223.8 196.0,224.2 216.0,222.4 236.0,224.1 256.0,223.2 276.0,224.3 296.0,223.9 316.0,225.5 336.0,224.1 356.0,224.8 376.0,224.3 396.0,224.2 416.0,223.2 436.0,224.8 456.0,223.7 476.0,224.4 496.0,226.0 516.0,223.9" /><polyline fill="none" stroke="#d97706" stroke-width="2.5" points="56.0,224.8 76.0,223.6 96.0,223.3 116.0,223.8 136.0,223.3 156.0,223.9 176.0,223.5 196.0,223.7 216.0,224.5 236.0,223.4 256.0,224.1 276.0,223.4 296.0,223.6 316.0,222.8 336.0,223.7 356.0,223.3 376.0,223.3 396.0,223.4 416.0,224.4 436.0,223.3 456.0,223.9 476.0,223.8 496.0,222.6 516.0,224.1" />
  <rect x="548" y="54" width="12" height="12" rx="2" fill="#2563eb" /><text x="568" y="64" font-size="12" fill="#111827">angular vel rads: 0.246</text><rect x="548" y="78" width="12" height="12" rx="2" fill="#dc2626" /><text x="568" y="88" font-size="12" fill="#111827">linear vel ms: 0.361</text><rect x="548" y="102" width="12" height="12" rx="2" fill="#059669" /><text x="568" y="112" font-size="12" fill="#111827">delta pos m[0]: 0.00229</text><rect x="548" y="126" width="12" height="12" rx="2" fill="#d97706" /><text x="568" y="136" font-size="12" fill="#111827">delta pos m std: 0.00176</text>
</svg>
