<svg xmlns="http://www.w3.org/2000/svg" width="760" height="280" viewBox="0 0 760 280" role="img" aria-label="Wheel Odometry example plot">
  <rect width="100%" height="100%" fill="#ffffff" />
  <rect x="14" y="14" width="732" height="252" rx="12" fill="#f8fafc" stroke="#cbd5e1" />
  <text x="28" y="38" font-size="20" font-weight="700" fill="#0f172a">Wheel Odometry</text>
  <text x="28" y="258" font-size="12" fill="#475569">Generated from 24 Genesis perception demo timesteps (dt=0.05s) via examples/generate_sensor_doc_assets.py</text>
  <text x="28" y="54" font-size="12" fill="#475569">Representative scalar summaries extracted from the sensor observation dict</text>
  <line x1="56" y1="56.0" x2="516" y2="56.0" stroke="#e5e7eb" /><line x1="56" y1="98.5" x2="516" y2="98.5" stroke="#e5e7eb" /><line x1="56" y1="141.0" x2="516" y2="141.0" stroke="#e5e7eb" /><line x1="56" y1="183.5" x2="516" y2="183.5" stroke="#e5e7eb" /><line x1="56" y1="226.0" x2="516" y2="226.0" stroke="#e5e7eb" />
  <line x1="56" y1="56" x2="56" y2="226" stroke="#94a3b8" stroke-width="1.5" />
  <line x1="56" y1="226" x2="516" y2="226" stroke="#94a3b8" stroke-width="1.5" />
  <text x="18" y="64" font-size="11" fill="#64748b">10.8</text>
  <text x="18" y="226" font-size="11" fill="#64748b">-0.0277</text>
  <polyline fill="none" stroke="#2563eb" stroke-width="2.5" points="56.0,218.5 76.0,210.7 96.0,201.9 116.0,197.1 136.0,189.7 156.0,182.1 176.0,175.8 196.0,167.5 216.0,161.8 236.0,153.2 256.0,147.2 276.0,139.6 296.0,134.7 316.0,126.1 336.0,119.4 356.0,110.7 376.0,104.6 396.0,97.5 416.0,90.0 436.0,85.2 456.0,76.7 476.0,69.9 496.0,61.3 516.0,56.0" /><polyline fill="none" stroke="#dc2626" stroke-width="2.5" points="56.0,225.6 76.0,225.6 96.0,225.6 116.0,225.5 136.0,225.4 156.0,225.2 176.0,224.9 196.0,224.3 216.0,223.5 236.0,222.4 256.0,220.9 276.0,219.0 296.0,216.8 316.0,214.2 336.0,211.5 356.0,208.8 376.0,206.3 396.0,204.8 416.0,203.6 436.0,203.6 456.0,204.5 476.0,205.8 496.0,206.7 516.0,206.2" /><polyline fill="none" stroke="#059669" stroke-width="2.5" points="56.0,225.4 76.0,225.3 96.0,225.1 116.0,225.0 136.0,224.9 156.0,224.7 176.0,224.6 196.0,224.4 216.0,224.3 236.0,224.1 256.0,224.0 276.0,223.9 296.0,223.7 316.0,223.6 336.0,223.4 356.0,223.3 376.0,223.1 396.0,223.0 416.0,222.9 436.0,222.7 456.0,222.6 476.0,222.4 496.0,222.3 516.0,222.2" /><polyline fill="none" stroke="#d97706" stroke-width="2.5" points="56.0,225.6 76.0,225.6 96.0,225.6 116.0,225.6 136.0,225.6 156.0,225.6 176.0,225.5 196.0,225.5 216.0,225.5 236.0,225.6 256.0,225.6 276.0,225.6 296.0,225.7 316.0,225.8 336.0,225.8 356.0,225.9 376.0,225.9 396.0,226.0 416.0,226.0 436.0,226.0 456.0,226.0 476.0,225.9 496.0,225.9 516.0,225.9" />
  <rect x="548" y="54" width="12" height="12" rx="2" fill="#2563eb" /><text x="568" y="64" font-size="12" fill="#111827">angular vel rads: 10.8</text><rect x="548" y="78" width="12" height="12" rx="2" fill="#dc2626" /><text x="568" y="88" font-size="12" fill="#111827">linear vel ms: 1.23</text><rect x="548" y="102" width="12" height="12" rx="2" fill="#059669" /><text x="568" y="112" font-size="12" fill="#111827">delta heading rad: 0.216</text><rect x="548" y="126" width="12" height="12" rx="2" fill="#d97706" /><text x="568" y="136" font-size="12" fill="#111827">delta pos m[0]: -0.0204</text>
</svg>
